Bodoni-16-Fatface.ufo
<glyph name="dollar" format="2">
  <advance width="635"/>
  <unicode hex="0024"/>
  <outline>
    <contour>
      <point x="319" y="830" type="line"/>
      <point x="336" y="830" type="line"/>
      <point x="336" y="-80" type="line"/>
      <point x="319" y="-80" type="line"/>
    </contour>
    <contour>
      <point x="250" y="830" type="line"/>
      <point x="266" y="830" type="line"/>
      <point x="266" y="-80" type="line"/>
      <point x="250" y="-80" type="line"/>
    </contour>
    <contour>
      <point x="517" y="657" type="curve"/>
      <point x="487" y="706"/>
      <point x="405" y="743"/>
      <point x="314" y="743" type="curve" smooth="yes"/>
      <point x="248" y="743"/>
      <point x="190" y="712"/>
      <point x="190" y="649" type="curve" smooth="yes"/>
      <point x="190" y="487"/>
      <point x="595" y="530"/>
      <point x="595" y="230" type="curve" smooth="yes"/>
      <point x="595" y="90"/>
      <point x="486" y="-15"/>
      <point x="315" y="-15" type="curve" smooth="yes"/>
      <point x="119" y="-15"/>
      <point x="25" y="80"/>
      <point x="25" y="165" type="curve" smooth="yes"/>
      <point x="25" y="231"/>
      <point x="66" y="277"/>
      <point x="130" y="277" type="curve" smooth="yes"/>
      <point x="180" y="277"/>
      <point x="224" y="235"/>
      <point x="224" y="171" type="curve" smooth="yes"/>
      <point x="224" y="111"/>
      <point x="163" y="86"/>
      <point x="119" y="86" type="curve" smooth="yes"/>
      <point x="92" y="86"/>
      <point x="68" y="97"/>
      <point x="58" y="114" type="curve"/>
      <point x="88" y="61"/>
      <point x="162" y="1"/>
      <point x="305" y="1" type="curve" smooth="yes"/>
      <point x="411" y="1"/>
      <point x="455" y="48"/>
      <point x="455" y="121" type="curve" smooth="yes"/>
      <point x="455" y="303"/>
      <point x="50" y="225"/>
      <point x="50" y="545" type="curve" smooth="yes"/>
      <point x="50" y="675"/>
      <point x="186" y="760"/>
      <point x="307" y="760" type="curve" smooth="yes"/>
      <point x="425" y="760"/>
      <point x="555" y="706"/>
      <point x="555" y="605" type="curve" smooth="yes"/>
      <point x="555" y="539"/>
      <point x="519" y="503"/>
      <point x="455" y="503" type="curve" smooth="yes"/>
      <point x="405" y="503"/>
      <point x="361" y="533"/>
      <point x="361" y="594" type="curve" smooth="yes"/>
      <point x="361" y="651"/>
      <point x="406" y="684"/>
      <point x="450" y="684" type="curve" smooth="yes"/>
      <point x="472" y="684"/>
      <point x="497" y="677"/>
    </contour>
  </outline>
</glyph>
<glyph name="percent" format="2">
  <advance width="4259"/>
  <unicode hex="0025"/>
  <outline>
    <contour>
      <point x="2970" y="860" type="curve" smooth="yes"/>
      <point x="2970" y="209"/>
      <point x="3035" y="16"/>
      <point x="3133" y="16" type="curve" smooth="yes"/>
      <point x="3231" y="16"/>
      <point x="3297" y="209"/>
      <point x="3297" y="860" type="curve" smooth="yes"/>
      <point x="3297" y="1511"/>
      <point x="3231" y="1704"/>
      <point x="3133" y="1704" type="curve" smooth="yes"/>
      <point x="3035" y="1704"/>
      <point x="2970" y="1511"/>
    </contour>
    <contour>
      <point x="2150" y="860" type="curve" smooth="yes"/>
      <point x="2150" y="1446"/>
      <point x="2670" y="1761"/>
      <point x="3133" y="1761" type="curve" smooth="yes"/>
      <point x="3596" y="1761"/>
      <point x="4116" y="1446"/>
      <point x="4116" y="860" type="curve" smooth="yes"/>
      <point x="4116" y="274"/>
      <point x="3514" y="-41"/>
      <point x="3133" y="-41" type="curve" smooth="yes"/>
      <point x="2670" y="-41"/>
      <point x="2150" y="274"/>
    </contour>
    <contour>
      <point x="3146" y="3072" type="line"/>
      <point x="3215" y="3072" type="line"/>
      <point x="1114" y="0" type="line"/>
      <point x="1044" y="0" type="line"/>
    </contour>
    <contour>
      <point x="963" y="2212" type="curve" smooth="yes"/>
      <point x="963" y="1561"/>
      <point x="1028" y="1368"/>
      <point x="1126" y="1368" type="curve" smooth="yes"/>
      <point x="1224" y="1368"/>
      <point x="1290" y="1561"/>
      <point x="1290" y="2212" type="curve" smooth="yes"/>
      <point x="1290" y="2863"/>
      <point x="1224" y="3056"/>
      <point x="1126" y="3056" type="curve" smooth="yes"/>
      <point x="1028" y="3056"/>
      <point x="963" y="2863"/>
    </contour>
    <contour>
      <point x="143" y="2212" type="curve" smooth="yes"/>
      <point x="143" y="2798"/>
      <point x="663" y="3113"/>
      <point x="1126" y="3113" type="curve" smooth="yes"/>
      <point x="1589" y="3113"/>
      <point x="2109" y="2798"/>
      <point x="2109" y="2212" type="curve" smooth="yes"/>
      <point x="2109" y="1626"/>
      <point x="1507" y="1311"/>
      <point x="1126" y="1311" type="curve" smooth="yes"/>
      <point x="663" y="1311"/>
      <point x="143" y="1626"/>
    </contour>
  </outline>
</glyph>
<glyph name="ampersand" format="2">
  <advance width="7352"/>
  <unicode hex="0026"/>
  <outline>
    <contour>
      <point x="4992" y="3680" type="line"/>
      <point x="6912" y="3680" type="line"/>
      <point x="6912" y="3568" type="line"/>
      <point x="4992" y="3568" type="line"/>
    </contour>
    <contour>
      <point x="6160" y="3632" type="line"/>
      <point x="5944" y="1848"/>
      <point x="4816" y="-80"/>
      <point x="2392" y="-80" type="curve" smooth="yes"/>
      <point x="928" y="-80"/>
      <point x="320" y="616"/>
      <point x="320" y="1440" type="curve" smooth="yes"/>
      <point x="320" y="2736"/>
      <point x="2080" y="3080"/>
      <point x="2848" y="3496" type="curve" smooth="yes"/>
      <point x="3504" y="3880"/>
      <point x="3848" y="3776"/>
      <point x="3848" y="5120" type="curve" smooth="yes"/>
      <point x="3848" y="5656"/>
      <point x="3768" y="6000"/>
      <point x="3472" y="6000" type="curve" smooth="yes"/>
      <point x="3216" y="6000"/>
      <point x="3088" y="5704"/>
      <point x="3088" y="5360" type="curve" smooth="yes"/>
      <point x="3088" y="5000"/>
      <point x="3368" y="4432"/>
      <point x="3712" y="3920" type="curve" smooth="yes"/>
      <point x="6200" y="112" type="line"/>
      <point x="7192" y="112" type="line"/>
      <point x="7192" y="0" type="line"/>
      <point x="4360" y="0" type="line"/>
      <point x="1712" y="3920" type="line" smooth="yes"/>
      <point x="1504" y="4224"/>
      <point x="1344" y="4624"/>
      <point x="1344" y="4904" type="curve" smooth="yes"/>
      <point x="1344" y="5624"/>
      <point x="2184" y="6080"/>
      <point x="3512" y="6080" type="curve" smooth="yes"/>
      <point x="4768" y="6080"/>
      <point x="5480" y="5736"/>
      <point x="5480" y="5128" type="curve" smooth="yes"/>
      <point x="5480" y="4224"/>
      <point x="4136" y="4280"/>
      <point x="2816" y="3464" type="curve" smooth="yes"/>
      <point x="2312" y="3160"/>
      <point x="2128" y="3176"/>
      <point x="2128" y="2208" type="curve" smooth="yes"/>
      <point x="2128" y="1200"/>
      <point x="2728" y="312"/>
      <point x="3480" y="312" type="curve" smooth="yes"/>
      <point x="4656" y="312"/>
      <point x="5888" y="1904"/>
      <point x="6048" y="3632" type="curve"/>
    </contour>
  </outline>
</glyph>
<glyph name="parenleft" format="2">
  <advance width="3056"/>
  <unicode hex="0028"/>
  <outline>
    <contour>
      <point x="2952" y="-1272" type="curve"/>
      <point x="2904" y="-1360" type="line"/>
      <point x="1600" y="-800"/>
      <point x="520" y="736"/>
      <point x="520" y="2600" type="curve" smooth="yes"/>
      <point x="520" y="4464"/>
      <point x="1600" y="5840"/>
      <point x="2904" y="6400" type="curve"/>
      <point x="2952" y="6312" type="line"/>
      <point x="2360" y="5912"/>
      <point x="2240" y="4136"/>
      <point x="2240" y="2600" type="curve" smooth="yes"/>
      <point x="2240" y="1064"/>
      <point x="2360" y="-872"/>
    </contour>
  </outline>
</glyph>
<glyph name="comma" format="2">
  <advance width="335"/>
  <unicode hex="002C"/>
  <outline>
    <contour>
      <point x="40" y="109" type="curve" smooth="yes"/>
      <point x="40" y="172"/>
      <point x="99" y="228"/>
      <point x="167" y="228" type="curve" smooth="yes"/>
      <point x="236" y="228"/>
      <point x="297" y="167"/>
      <point x="297" y="64" type="curve" smooth="yes"/>
      <point x="297" y="-66"/>
      <point x="188" y="-156"/>
      <point x="38" y="-156" type="curve"/>
      <point x="38" y="-142" type="line"/>
      <point x="171" y="-142"/>
      <point x="290" y="-71"/>
      <point x="280" y="90" type="curve"/>
      <point x="265" y="34"/>
      <point x="213" y="-10"/>
      <point x="155" y="-10" type="curve" smooth="yes"/>
      <point x="88" y="-10"/>
      <point x="40" y="46"/>
    </contour>
  </outline>
</glyph>
<glyph name="period" format="2">
  <advance width="1310"/>
  <unicode hex="002E"/>
  <outline>
    <contour>
      <point x="164" y="450" type="curve" smooth="yes"/>
      <point x="164" y="720"/>
      <point x="386" y="942"/>
      <point x="656" y="942" type="curve" smooth="yes"/>
      <point x="926" y="942"/>
      <point x="1146" y="720"/>
      <point x="1146" y="450" type="curve" smooth="yes"/>
      <point x="1146" y="180"/>
      <point x="926" y="-40"/>
      <point x="656" y="-40" type="curve" smooth="yes"/>
      <point x="386" y="-40"/>
      <point x="164" y="180"/>
    </contour>
  </outline>
</glyph>
<glyph name="one" format="2">
  <advance width="2273"/>
  <unicode hex="0031"/>
  <outline>
    <contour>
      <point x="205" y="57" type="line"/>
      <point x="2068" y="57" type="line"/>
      <point x="2068" y="0" type="line"/>
      <point x="205" y="0" type="line"/>
    </contour>
    <contour>
      <point x="274" y="3072" type="line"/>
      <point x="1618" y="3072" type="line"/>
      <point x="1618" y="29" type="line"/>
      <point x="737" y="29" type="line"/>
      <point x="737" y="3015" type="line"/>
      <point x="274" y="3015" type="line"/>
    </contour>
  </outline>
</glyph>
<glyph name="two" format="2">
  <advance width="650"/>
  <unicode hex="0032"/>
  <outline>
    <contour>
      <point x="615" y="0" type="line"/>
      <point x="40" y="0" type="line"/>
      <point x="40" y="135" type="line"/>
      <point x="243" y="265" type="line" smooth="yes"/>
      <point x="328" y="320"/>
      <point x="374" y="386"/>
      <point x="374" y="510" type="curve" smooth="yes"/>
      <point x="374" y="644"/>
      <point x="315" y="716"/>
      <point x="237" y="716" type="curve" smooth="yes"/>
      <point x="152" y="716"/>
      <point x="70" y="647"/>
      <point x="67" y="556" type="curve"/>
      <point x="80" y="603"/>
      <point x="124" y="642"/>
      <point x="175" y="642" type="curve" smooth="yes"/>
      <point x="248" y="642"/>
      <point x="298" y="591"/>
      <point x="298" y="526" type="curve" smooth="yes"/>
      <point x="298" y="456"/>
      <point x="230" y="407"/>
      <point x="165" y="407" type="curve" smooth="yes"/>
      <point x="100" y="407"/>
      <point x="49" y="457"/>
      <point x="49" y="549" type="curve" smooth="yes"/>
      <point x="49" y="666"/>
      <point x="158" y="760"/>
      <point x="325" y="760" type="curve" smooth="yes"/>
      <point x="496" y="760"/>
      <point x="594" y="680"/>
      <point x="594" y="570" type="curve" smooth="yes"/>
      <point x="594" y="440"/>
      <point x="467" y="383"/>
      <point x="373" y="325" type="curve" smooth="yes"/>
      <point x="187" y="210" type="line"/>
      <point x="601" y="210" type="line"/>
      <point x="601" y="285" type="line"/>
      <point x="615" y="285" type="line"/>
    </contour>
  </outline>
</glyph>
<glyph name="three" format="2">
  <advance width="621"/>
  <unicode hex="0033"/>
  <outline>
    <contour>
      <point x="581" y="210" type="curve" smooth="yes"/>
      <point x="581" y="70"/>
      <point x="442" y="-10"/>
      <point x="281" y="-10" type="curve" smooth="yes"/>
      <point x="109" y="-10"/>
      <point x="25" y="94"/>
      <point x="25" y="186" type="curve" smooth="yes"/>
      <point x="25" y="257"/>
      <point x="75" y="306"/>
      <point x="140" y="306" type="curve" smooth="yes"/>
      <point x="200" y="306"/>
      <point x="244" y="262"/>
      <point x="244" y="196" type="curve" smooth="yes"/>
      <point x="244" y="134"/>
      <point x="191" y="90"/>
      <point x="132" y="90" type="curve" smooth="yes"/>
      <point x="97" y="90"/>
      <point x="76" y="103"/>
      <point x="65" y="115" type="curve"/>
      <point x="94" y="62"/>
      <point x="154" y="14"/>
      <point x="245" y="14" type="curve" smooth="yes"/>
      <point x="344" y="14"/>
      <point x="360" y="86"/>
      <point x="360" y="210" type="curve" smooth="yes"/>
      <point x="360" y="314"/>
      <point x="332" y="399"/>
      <point x="213" y="399" type="curve"/>
      <point x="213" y="409" type="line"/>
      <point x="474" y="409"/>
      <point x="581" y="330"/>
    </contour>
    <contour>
      <point x="213" y="402" type="curve"/>
      <point x="213" y="412" type="line"/>
      <point x="322" y="412"/>
      <point x="330" y="517"/>
      <point x="330" y="591" type="curve" smooth="yes"/>
      <point x="330" y="675"/>
      <point x="309" y="736"/>
      <point x="250" y="736" type="curve" smooth="yes"/>
      <point x="197" y="736"/>
      <point x="150" y="709"/>
      <point x="125" y="683" type="curve"/>
      <point x="137" y="695"/>
      <point x="154" y="699"/>
      <point x="172" y="699" type="curve" smooth="yes"/>
      <point x="221" y="699"/>
      <point x="269" y="659"/>
      <point x="269" y="599" type="curve" smooth="yes"/>
      <point x="269" y="534"/>
      <point x="217" y="488"/>
      <point x="162" y="488" type="curve" smooth="yes"/>
      <point x="102" y="488"/>
      <point x="55" y="524"/>
      <point x="55" y="590" type="curve" smooth="yes"/>
      <point x="55" y="692"/>
      <point x="179" y="759"/>
      <point x="281" y="759" type="curve" smooth="yes"/>
      <point x="432" y="759"/>
      <point x="551" y="691"/>
      <point x="551" y="581" type="curve" smooth="yes"/>
      <point x="551" y="481"/>
      <point x="464" y="402"/>
    </contour>
  </outline>
</glyph>
<glyph name="four" format="2">
  <advance width="5480"/>
  <unicode hex="0034"/>
  <outline>
    <contour>
      <point x="5120" y="112" type="line"/>
      <point x="5120" y="0" type="line"/>
      <point x="2040" y="0" type="line"/>
      <point x="2040" y="112" type="line"/>
      <point x="2800" y="112" type="line"/>
      <point x="2800" y="5064" type="line"/>
      <point x="488" y="1776" type="line"/>
      <point x="5400" y="1776" type="line"/>
      <point x="5400" y="1664" type="line"/>
      <point x="280" y="1664" type="line"/>
      <point x="3320" y="6000" type="line"/>
      <point x="4520" y="6000" type="line"/>
      <point x="4520" y="112" type="line"/>
    </contour>
  </outline>
</glyph>
<glyph name="five" format="2">
  <advance width="4560"/>
  <unicode hex="0035"/>
  <outline>
    <contour>
      <point x="4040" y="4320" type="line"/>
      <point x="488" y="4320" type="line"/>
      <point x="488" y="2696" type="line"/>
      <point x="376" y="2696" type="line"/>
      <point x="376" y="6000" type="line"/>
      <point x="3928" y="6000" type="line"/>
      <point x="3928" y="6440" type="line"/>
      <point x="4040" y="6440" type="line"/>
    </contour>
    <contour>
      <point x="448" y="496" type="curve"/>
      <point x="560" y="280"/>
      <point x="1024" y="64"/>
      <point x="1440" y="64" type="curve" smooth="yes"/>
      <point x="2152" y="64"/>
      <point x="2520" y="648"/>
      <point x="2520" y="1720" type="curve" smooth="yes"/>
      <point x="2520" y="2952"/>
      <point x="2264" y="3328"/>
      <point x="1632" y="3328" type="curve" smooth="yes"/>
      <point x="1152" y="3328"/>
      <point x="728" y="3080"/>
      <point x="528" y="2696" type="curve"/>
      <point x="432" y="2696" type="line"/>
      <point x="640" y="3152"/>
      <point x="1128" y="3520"/>
      <point x="2016" y="3520" type="curve" smooth="yes"/>
      <point x="3384" y="3520"/>
      <point x="4320" y="2920"/>
      <point x="4320" y="1720" type="curve" smooth="yes"/>
      <point x="4320" y="600"/>
      <point x="3176" y="-80"/>
      <point x="1728" y="-80" type="curve" smooth="yes"/>
      <point x="832" y="-80"/>
      <point x="-80" y="296"/>
      <point x="-80" y="1192" type="curve" smooth="yes"/>
      <point x="-80" y="1760"/>
      <point x="336" y="2168"/>
      <point x="856" y="2168" type="curve" smooth="yes"/>
      <point x="1376" y="2168"/>
      <point x="1792" y="1840"/>
      <point x="1792" y="1280" type="curve" smooth="yes"/>
      <point x="1792" y="760"/>
      <point x="1328" y="320"/>
      <point x="824" y="320" type="curve" smooth="yes"/>
      <point x="648" y="320"/>
      <point x="536" y="392"/>
    </contour>
  </outline>
</glyph>
<glyph name="six" format="2">
  <advance width="660"/>
  <unicode hex="0036"/>
  <outline>
    <contour>
      <point x="400" y="250" type="curve" smooth="yes"/>
      <point x="400" y="434"/>
      <point x="379" y="467"/>
      <point x="340" y="467" type="curve" smooth="yes"/>
      <point x="300" y="467"/>
      <point x="280" y="430"/>
      <point x="280" y="280" type="curve"/>
      <point x="270" y="280" type="line"/>
      <point x="270" y="414"/>
      <point x="274" y="495"/>
      <point x="381" y="495" type="curve" smooth="yes"/>
      <point x="502" y="495"/>
      <point x="630" y="420"/>
      <point x="630" y="250" type="curve" smooth="yes"/>
      <point x="630" y="100"/>
      <point x="515" y="-10"/>
      <point x="344" y="-10" type="curve" smooth="yes"/>
      <point x="173" y="-10"/>
      <point x="50" y="100"/>
      <point x="50" y="310" type="curve" smooth="yes"/>
      <point x="50" y="553"/>
      <point x="252" y="760"/>
      <point x="555" y="760" type="curve"/>
      <point x="555" y="748" type="line"/>
      <point x="371" y="748"/>
      <point x="277" y="545"/>
      <point x="277" y="359" type="curve"/>
      <point x="280" y="280" type="line"/>
      <point x="280" y="96"/>
      <point x="298" y="4"/>
      <point x="347" y="4" type="curve" smooth="yes"/>
      <point x="396" y="4"/>
      <point x="400" y="86"/>
    </contour>
  </outline>
</glyph>
<glyph name="seven" format="2">
  <advance width="4600"/>
  <unicode hex="0037"/>
  <outline>
    <contour>
      <point x="1024" y="848" type="curve" smooth="yes"/>
      <point x="1024" y="1480"/>
      <point x="1880" y="2168"/>
      <point x="2520" y="3024" type="curve" smooth="yes"/>
      <point x="2768" y="3352"/>
      <point x="2928" y="3584"/>
      <point x="3344" y="4280" type="curve"/>
      <point x="432" y="4280" type="line"/>
      <point x="432" y="3680" type="line"/>
      <point x="320" y="3680" type="line"/>
      <point x="320" y="6000" type="line"/>
      <point x="4520" y="6000" type="line"/>
      <point x="4520" y="6000"/>
      <point x="3448" y="4096"/>
      <point x="2752" y="3104" type="curve" smooth="yes"/>
      <point x="2328" y="2496"/>
      <point x="2264" y="2416"/>
      <point x="2264" y="2176" type="curve" smooth="yes"/>
      <point x="2264" y="1752"/>
      <point x="3024" y="1632"/>
      <point x="3024" y="864" type="curve" smooth="yes"/>
      <point x="3024" y="328"/>
      <point x="2624" y="-80"/>
      <point x="2032" y="-80" type="curve" smooth="yes"/>
      <point x="1480" y="-80"/>
      <point x="1024" y="216"/>
    </contour>
  </outline>
</glyph>
<glyph name="less" format="2">
  <advance width="4480"/>
  <unicode hex="003C"/>
  <outline>
    <contour>
      <point x="480" y="3056" type="line"/>
      <point x="480" y="3168" type="line"/>
      <point x="4000" y="4800" type="line"/>
      <point x="4000" y="4688" type="line"/>
    </contour>
    <contour>
      <point x="480" y="3032" type="line"/>
      <point x="480" y="3144" type="line"/>
      <point x="4000" y="1512" type="line"/>
      <point x="4000" y="1400" type="line"/>
    </contour>
  </outline>
</glyph>
<glyph name="question" format="2">
  <advance width="620"/>
  <unicode hex="003F"/>
  <outline>
    <contour>
      <point x="250" y="368" type="line"/>
      <point x="327" y="399"/>
      <point x="349" y="467"/>
      <point x="349" y="560" type="curve" smooth="yes"/>
      <point x="349" y="654"/>
      <point x="339" y="737"/>
      <point x="260" y="737" type="curve" smooth="yes"/>
      <point x="183" y="737"/>
      <point x="111" y="679"/>
      <point x="95" y="632" type="curve"/>
      <point x="100" y="640"/>
      <point x="126" y="660"/>
      <point x="164" y="660" type="curve" smooth="yes"/>
      <point x="223" y="660"/>
      <point x="274" y="625"/>
      <point x="274" y="565" type="curve" smooth="yes"/>
      <point x="274" y="500"/>
      <point x="232" y="459"/>
      <point x="167" y="459" type="curve" smooth="yes"/>
      <point x="97" y="459"/>
      <point x="60" y="505"/>
      <point x="60" y="571" type="curve" smooth="yes"/>
      <point x="60" y="663"/>
      <point x="154" y="760"/>
      <point x="306" y="760" type="curve" smooth="yes"/>
      <point x="467" y="760"/>
      <point x="570" y="680"/>
      <point x="570" y="560" type="curve" smooth="yes"/>
      <point x="570" y="445"/>
      <point x="455" y="368"/>
      <point x="264" y="359" type="curve"/>
      <point x="264" y="279" type="line"/>
      <point x="250" y="279" type="line"/>
    </contour>
    <component base="period" xOffset="129"/>
  </outline>
</glyph>
<glyph name="at" format="2">
  <advance width="8080"/>
  <unicode hex="0040"/>
  <outline>
    <contour>
      <point x="4408" y="2888" type="curve" smooth="yes"/>
      <point x="4408" y="1592"/>
      <point x="3920" y="560"/>
      <point x="2880" y="560" type="curve" smooth="yes"/>
      <point x="2120" y="560"/>
      <point x="1632" y="1008"/>
      <point x="1632" y="1840" type="curve" smooth="yes"/>
      <point x="1632" y="3040"/>
      <point x="2464" y="4232"/>
      <point x="3568" y="4232" type="curve" smooth="yes"/>
      <point x="4328" y="4232"/>
      <point x="4408" y="3544"/>
    </contour>
    <contour>
      <point x="4312" y="2768" type="curve" smooth="yes"/>
      <point x="4312" y="3104"/>
      <point x="4312" y="3704"/>
      <point x="4136" y="3704" type="curve" smooth="yes"/>
      <point x="3872" y="3704"/>
      <point x="3400" y="2912"/>
      <point x="3400" y="1920" type="curve" smooth="yes"/>
      <point x="3400" y="1384"/>
      <point x="3520" y="1096"/>
      <point x="3712" y="1096" type="curve" smooth="yes"/>
      <point x="3960" y="1096"/>
      <point x="4312" y="1800"/>
    </contour>
    <contour>
      <point x="4160" y="1680" type="curve" smooth="yes"/>
      <point x="4736" y="4160" type="line"/>
      <point x="6416" y="4160" type="line"/>
      <point x="5832" y="1640" type="line" smooth="yes"/>
      <point x="5744" y="1248"/>
      <point x="5616" y="816"/>
      <point x="5944" y="816" type="curve" smooth="yes"/>
      <point x="6688" y="816"/>
      <point x="7528" y="1880"/>
      <point x="7528" y="3208" type="curve" smooth="yes"/>
      <point x="7528" y="4632"/>
      <point x="6648" y="6208"/>
      <point x="4672" y="6208" type="curve" smooth="yes"/>
      <point x="2408" y="6208"/>
      <point x="552" y="4136"/>
      <point x="552" y="1688" type="curve" smooth="yes"/>
      <point x="552" y="-736"/>
      <point x="1944" y="-1600"/>
      <point x="3352" y="-1600" type="curve" smooth="yes"/>
      <point x="4656" y="-1600"/>
      <point x="5496" y="-1216"/>
      <point x="6200" y="-432" type="curve"/>
      <point x="6280" y="-512" type="line"/>
      <point x="5608" y="-1296"/>
      <point x="4656" y="-1712"/>
      <point x="3352" y="-1712" type="curve" smooth="yes"/>
      <point x="1888" y="-1712"/>
      <point x="440" y="-824"/>
      <point x="440" y="1688" type="curve" smooth="yes"/>
      <point x="440" y="4192"/>
      <point x="2336" y="6320"/>
      <point x="4680" y="6320" type="curve" smooth="yes"/>
      <point x="6704" y="6320"/>
      <point x="7640" y="4672"/>
      <point x="7640" y="3208" type="curve" smooth="yes"/>
      <point x="7640" y="1848"/>
      <point x="6896" y="544"/>
      <point x="5288" y="544" type="curve" smooth="yes"/>
      <point x="4096" y="544"/>
      <point x="4048" y="1184"/>
    </contour>
  </outline>
</glyph>
<glyph name="A" format="2">
  <advance width="6640"/>
  <unicode hex="0041"/>
  <outline>
    <contour>
      <point x="120" y="112" type="line"/>
      <point x="1880" y="112" type="line"/>
      <point x="1880" y="0" type="line"/>
      <point x="120" y="0" type="line"/>
    </contour>
    <contour>
      <point x="3400" y="112" type="line"/>
      <point x="6520" y="112" type="line"/>
      <point x="6520" y="0" type="line"/>
      <point x="3400" y="0" type="line"/>
    </contour>
    <contour>
      <point x="1520" y="2016" type="line"/>
      <point x="4120" y="2016" type="line"/>
      <point x="4120" y="1904" type="line"/>
      <point x="1520" y="1904" type="line"/>
    </contour>
    <contour>
      <point x="2496" y="4504" type="line"/>
      <point x="912" y="0" type="line"/>
      <point x="776" y="0" type="line"/>
      <point x="2944" y="6120" type="line"/>
      <point x="3840" y="6120" type="line"/>
      <point x="5960" y="0" type="line"/>
      <point x="3960" y="0" type="line"/>
    </contour>
  </outline>
</glyph>
<glyph name="B" format="2">
  <advance width="6120"/>
  <unicode hex="0042"/>
  <outline>
    <contour>
      <point x="3240" y="3048" type="curve" smooth="yes"/>
      <point x="2200" y="3048" type="line"/>
      <point x="2200" y="3136" type="line"/>
      <point x="2920" y="3136" type="line" smooth="yes"/>
      <point x="3448" y="3136"/>
      <point x="3800" y="3488"/>
      <point x="3800" y="4440" type="curve" smooth="yes"/>
      <point x="3800" y="5392"/>
      <point x="3448" y="5888"/>
      <point x="2920" y="5888" type="curve" smooth="yes"/>
      <point x="120" y="5888" type="line"/>
      <point x="120" y="6000" type="line"/>
      <point x="3240" y="6000" type="line" smooth="yes"/>
      <point x="4688" y="6000"/>
      <point x="5560" y="5560"/>
      <point x="5560" y="4520" type="curve" smooth="yes"/>
      <point x="5560" y="3560"/>
      <point x="4768" y="3048"/>
    </contour>
    <contour>
      <point x="840" y="6000" type="line"/>
      <point x="2560" y="6000" type="line"/>
      <point x="2560" y="0" type="line"/>
      <point x="840" y="0" type="line"/>
    </contour>
    <contour>
      <point x="3400" y="0" type="curve" smooth="yes"/>
      <point x="120" y="0" type="line"/>
      <point x="120" y="112" type="line"/>
      <point x="3000" y="112" type="line" smooth="yes"/>
      <point x="3608" y="112"/>
      <point x="3960" y="728"/>
      <point x="3960" y="1680" type="curve" smooth="yes"/>
      <point x="3960" y="2632"/>
      <point x="3608" y="3024"/>
      <point x="3000" y="3024" type="curve" smooth="yes"/>
      <point x="2200" y="3024" type="line"/>
      <point x="2200" y="3112" type="line"/>
      <point x="3400" y="3112" type="line" smooth="yes"/>
      <point x="4768" y="3112"/>
      <point x="5800" y="2720"/>
      <point x="5800" y="1520" type="curve" smooth="yes"/>
      <point x="5800" y="400"/>
      <point x="4928" y="0"/>
    </contour>
  </outline>
</glyph>
<glyph name="C" format="2">
  <advance width="735"/>
  <unicode hex="0043"/>
  <outline>
    <contour>
      <point x="675" y="750" type="line"/>
      <point x="685" y="750" type="line"/>
      <point x="685" y="515" type="line"/>
      <point x="672" y="538"/>
      <point x="573" y="681"/>
      <point x="553" y="701" type="curve"/>
    </contour>
    <contour>
      <point x="685" y="515" type="curve"/>
      <point x="671" y="515" type="line"/>
      <point x="596" y="649"/>
      <point x="537" y="739"/>
      <point x="430" y="739" type="curve" smooth="yes"/>
      <point x="306" y="739"/>
      <point x="275" y="557"/>
      <point x="275" y="375" type="curve" smooth="yes"/>
      <point x="275" y="193"/>
      <point x="306" y="11"/>
      <point x="430" y="11" type="curve" smooth="yes"/>
      <point x="564" y="11"/>
      <point x="609" y="109"/>
      <point x="681" y="235" type="curve"/>
      <point x="695" y="235" type="line"/>
      <point x="635" y="92"/>
      <point x="563" y="-10"/>
      <point x="420" y="-10" type="curve" smooth="yes"/>
      <point x="177" y="-10"/>
      <point x="40" y="152"/>
      <point x="40" y="375" type="curve" smooth="yes"/>
      <point x="40" y="598"/>
      <point x="177" y="760"/>
      <point x="420" y="760" type="curve" smooth="yes"/>
      <point x="548" y="760"/>
      <point x="615" y="658"/>
    </contour>
    <contour>
      <point x="695" y="235" type="curve"/>
      <point x="695" y="0" type="line"/>
      <point x="685" y="0" type="line"/>
      <point x="567" y="51" type="line"/>
      <point x="588" y="72"/>
      <point x="685" y="214"/>
    </contour>
  </outline>
</glyph>
<glyph name="D" format="2">
  <advance width="815"/>
  <unicode hex="0044"/>
  <outline>
    <contour>
      <point x="105" y="750" type="line"/>
      <point x="320" y="750" type="line"/>
      <point x="320" y="0" type="line"/>
      <point x="105" y="0" type="line"/>
    </contour>
    <contour>
      <point x="375" y="0" type="curve" smooth="yes"/>
      <point x="15" y="0" type="line"/>
      <point x="15" y="14" type="line"/>
      <point x="375" y="14" type="line" smooth="yes"/>
      <point x="499" y="14"/>
      <point x="540" y="163"/>
      <point x="540" y="375" type="curve" smooth="yes"/>
      <point x="540" y="587"/>
      <point x="489" y="736"/>
      <point x="375" y="736" type="curve" smooth="yes"/>
      <point x="15" y="736" type="line"/>
      <point x="15" y="750" type="line"/>
      <point x="375" y="750" type="line" smooth="yes"/>
      <point x="628" y="750"/>
      <point x="775" y="608"/>
      <point x="775" y="375" type="curve" smooth="yes"/>
      <point x="775" y="142"/>
      <point x="618" y="0"/>
    </contour>
  </outline>
</glyph>
<glyph name="E" format="2">
  <advance width="670"/>
  <unicode hex="0045"/>
  <outline>
    <contour>
      <point x="626" y="225" type="curve"/>
      <point x="640" y="225" type="line"/>
      <point x="640" y="0" type="line"/>
      <point x="15" y="0" type="line"/>
      <point x="15" y="14" type="line"/>
      <point x="370" y="14" type="line" smooth="yes"/>
      <point x="507" y="14"/>
      <point x="596" y="98"/>
    </contour>
    <contour>
      <point x="105" y="750" type="line"/>
      <point x="320" y="750" type="line"/>
      <point x="320" y="0" type="line"/>
      <point x="105" y="0" type="line"/>
    </contour>
    <contour>
      <point x="15" y="750" type="line"/>
      <point x="630" y="750" type="line"/>
      <point x="630" y="545" type="line"/>
      <point x="616" y="545" type="line"/>
      <point x="586" y="652"/>
      <point x="497" y="736"/>
      <point x="380" y="736" type="curve" smooth="yes"/>
      <point x="15" y="736" type="line"/>
    </contour>
    <contour>
      <point x="476" y="248" type="line"/>
      <point x="446" y="315"/>
      <point x="387" y="381"/>
      <point x="330" y="381" type="curve" smooth="yes"/>
      <point x="270" y="381" type="line"/>
      <point x="270" y="395" type="line"/>
      <point x="330" y="395" type="line" smooth="yes"/>
      <point x="387" y="395"/>
      <point x="446" y="456"/>
      <point x="476" y="523" type="curve"/>
      <point x="490" y="523" type="line"/>
      <point x="490" y="248" type="line"/>
    </contour>
  </outline>
</glyph>
<glyph name="F" format="2">
  <advance width="2620"/>
  <unicode hex="0046"/>
  <outline>
    <contour>
      <point x="61" y="3072" type="line"/>
      <point x="2499" y="3072" type="line"/>
      <point x="2499" y="2232" type="line"/>
      <point x="2442" y="2232" type="line"/>
      <point x="2319" y="2670"/>
      <point x="2035" y="3016"/>
      <point x="1597" y="3016" type="curve" smooth="yes"/>
      <point x="61" y="3016" type="line"/>
    </contour>
    <contour>
      <point x="61" y="56" type="line"/>
      <point x="1720" y="56" type="line"/>
      <point x="1720" y="0" type="line"/>
      <point x="61" y="0" type="line"/>
    </contour>
    <contour>
      <point x="430" y="3072" type="line"/>
      <point x="1311" y="3072" type="line"/>
      <point x="1311" y="0" type="line"/>
      <point x="430" y="0" type="line"/>
    </contour>
    <contour>
      <point x="1910" y="934" type="line"/>
      <point x="1787" y="1208"/>
      <point x="1605" y="1500"/>
      <point x="1331" y="1500" type="curve" smooth="yes"/>
      <point x="1065" y="1500" type="line"/>
      <point x="1065" y="1556" type="line"/>
      <point x="1331" y="1556" type="line" smooth="yes"/>
      <point x="1605" y="1556"/>
      <point x="1787" y="1827"/>
      <point x="1910" y="2101" type="curve"/>
      <point x="1966" y="2101" type="line"/>
      <point x="1966" y="934" type="line"/>
    </contour>
  </outline>
</glyph>
<glyph name="G" format="2">
  <advance width="800"/>
  <unicode hex="0047"/>
  <outline>
    <contour>
      <point x="725" y="515" type="line"/>
      <point x="695" y="601"/>
      <point x="620" y="671"/>
      <point x="572" y="710" type="curve"/>
      <point x="715" y="750" type="line"/>
      <point x="725" y="750" type="line"/>
    </contour>
    <contour>
      <point x="420" y="292" type="line"/>
      <point x="790" y="292" type="line"/>
      <point x="790" y="278" type="line"/>
      <point x="420" y="278" type="line"/>
    </contour>
    <contour>
      <point x="525" y="282" type="line"/>
      <point x="750" y="282" type="line"/>
      <point x="750" y="145" type="line"/>
      <point x="650" y="72"/>
      <point x="588" y="-10"/>
      <point x="425" y="-10" type="curve" smooth="yes"/>
      <point x="187" y="-10"/>
      <point x="40" y="132"/>
      <point x="40" y="375" type="curve" smooth="yes"/>
      <point x="40" y="618"/>
      <point x="237" y="760"/>
      <point x="440" y="760" type="curve" smooth="yes"/>
      <point x="568" y="760"/>
      <point x="707" y="638"/>
      <point x="725" y="515" type="curve"/>
      <point x="711" y="515" type="line"/>
      <point x="671" y="607"/>
      <point x="583" y="738"/>
      <point x="458" y="738" type="curve" smooth="yes"/>
      <point x="334" y="738"/>
      <point x="275" y="557"/>
      <point x="275" y="375" type="curve" smooth="yes"/>
      <point x="275" y="193"/>
      <point x="306" y="10"/>
      <point x="425" y="10" type="curve" smooth="yes"/>
      <point x="469" y="10"/>
      <point x="505" y="63"/>
      <point x="525" y="125" type="curve"/>
    </contour>
  </outline>
</glyph>
<glyph name="H" format="2">
  <advance width="3480"/>
  <unicode hex="0048"/>
  <outline>
    <contour>
      <point x="1229" y="1544" type="line"/>
      <point x="2253" y="1544" type="line"/>
      <point x="2253" y="1488" type="line"/>
      <point x="1229" y="1488" type="line"/>
    </contour>
    <contour>
      <point x="1843" y="56" type="line"/>
      <point x="3420" y="56" type="line"/>
      <point x="3420" y="0" type="line"/>
      <point x="1843" y="0" type="line"/>
    </contour>
    <contour>
      <point x="61" y="56" type="line"/>
      <point x="1638" y="56" type="line"/>
      <point x="1638" y="0" type="line"/>
      <point x="61" y="0" type="line"/>
    </contour>
    <contour>
      <point x="1843" y="3072" type="line"/>
      <point x="3420" y="3072" type="line"/>
      <point x="3420" y="3016" type="line"/>
      <point x="1843" y="3016" type="line"/>
    </contour>
    <contour>
      <point x="61" y="3072" type="line"/>
      <point x="1638" y="3072" type="line"/>
      <point x="1638" y="3016" type="line"/>
      <point x="61" y="3016" type="line"/>
    </contour>
    <contour>
      <point x="2171" y="3072" type="line"/>
      <point x="3052" y="3072" type="line"/>
      <point x="3052" y="0" type="line"/>
      <point x="2171" y="0" type="line"/>
    </contour>
    <contour>
      <point x="430" y="3072" type="line"/>
      <point x="1311" y="3072" type="line"/>
      <point x="1311" y="0" type="line"/>
      <point x="430" y="0" type="line"/>
    </contour>
  </outline>
</glyph>
<glyph name="J" format="2">
  <advance width="2624"/>
  <unicode hex="004A"/>
  <outline>
    <contour>
      <point x="741" y="3072" type="line"/>
      <point x="2564" y="3072" type="line"/>
      <point x="2564" y="3016" type="line"/>
      <point x="741" y="3016" type="line"/>
    </contour>
    <contour>
      <point x="1274" y="3072" type="line"/>
      <point x="2154" y="3072" type="line"/>
      <point x="2154" y="696" type="line"/>
      <point x="1908" y="204"/>
      <point x="1626" y="-123"/>
      <point x="926" y="-123" type="curve" smooth="yes"/>
      <point x="406" y="-123"/>
      <point x="41" y="102"/>
      <point x="41" y="512" type="curve" smooth="yes"/>
      <point x="41" y="807"/>
      <point x="274" y="1024"/>
      <point x="561" y="1024" type="curve" smooth="yes"/>
      <point x="827" y="1024"/>
      <point x="1036" y="828"/>
      <point x="1036" y="537" type="curve" smooth="yes"/>
      <point x="1036" y="291"/>
      <point x="840" y="49"/>
      <point x="582" y="49" type="curve" smooth="yes"/>
      <point x="485" y="49"/>
      <point x="362" y="74"/>
      <point x="301" y="115" type="curve"/>
      <point x="420" y="-5"/>
      <point x="681" y="-61"/>
      <point x="892" y="-61" type="curve" smooth="yes"/>
      <point x="1183" y="-61"/>
      <point x="1274" y="205"/>
      <point x="1274" y="778" type="curve" smooth="yes"/>
    </contour>
  </outline>
</glyph>
<glyph name="K" format="2">
  <advance width="3502"/>
  <unicode hex="004B"/>
  <outline>
    <contour>
      <point x="61" y="57" type="line"/>
      <point x="1638" y="57" type="line"/>
      <point x="1638" y="0" type="line"/>
      <point x="61" y="0" type="line"/>
    </contour>
    <contour>
      <point x="61" y="3072" type="line"/>
      <point x="1720" y="3072" type="line"/>
      <point x="1720" y="3015" type="line"/>
      <point x="61" y="3015" type="line"/>
    </contour>
    <contour>
      <point x="430" y="3072" type="line"/>
      <point x="1311" y="3072" type="line"/>
      <point x="1311" y="0" type="line"/>
      <point x="430" y="0" type="line"/>
    </contour>
    <contour>
      <point x="791" y="889" type="line"/>
      <point x="705" y="889" type="line"/>
      <point x="2810" y="3064" type="line"/>
      <point x="2896" y="3064" type="line"/>
    </contour>
    <contour>
      <point x="1802" y="57" type="line"/>
      <point x="3482" y="57" type="line"/>
      <point x="3482" y="0" type="line"/>
      <point x="1802" y="0" type="line"/>
    </contour>
    <contour>
      <point x="3297" y="3015" type="line"/>
      <point x="2314" y="3015" type="line"/>
      <point x="2314" y="3072" type="line"/>
      <point x="3297" y="3072" type="line"/>
    </contour>
    <contour>
      <point x="3162" y="0" type="line"/>
      <point x="2179" y="0" type="line"/>
      <point x="1323" y="1487" type="line"/>
      <point x="1917" y="2114" type="line"/>
    </contour>
  </outline>
</glyph>
<glyph name="L" format="2">
  <advance width="660"/>
  <unicode hex="004C"/>
  <outline>
    <contour>
      <point x="105" y="750" type="line"/>
      <point x="320" y="750" type="line"/>
      <point x="320" y="0" type="line"/>
      <point x="105" y="0" type="line"/>
    </contour>
    <contour>
      <point x="15" y="750" type="line"/>
      <point x="61" y="750"/>
      <point x="364" y="750"/>
      <point x="410" y="750" type="curve"/>
      <point x="410" y="736" type="line"/>
      <point x="15" y="736" type="line"/>
    </contour>
    <contour>
      <point x="640" y="0" type="line"/>
      <point x="15" y="0" type="line"/>
      <point x="15" y="14" type="line"/>
      <point x="370" y="14" type="line" smooth="yes"/>
      <point x="507" y="14"/>
      <point x="596" y="98"/>
      <point x="626" y="225" type="curve"/>
      <point x="640" y="225" type="line"/>
    </contour>
  </outline>
</glyph>
<glyph name="M" format="2">
  <advance width="940"/>
  <unicode hex="004D"/>
  <outline>
    <contour>
      <point x="925" y="750" type="line"/>
      <point x="925" y="736" type="line"/>
      <point x="855" y="736" type="line"/>
      <point x="855" y="0" type="line"/>
      <point x="640" y="0" type="line"/>
      <point x="640" y="750" type="line"/>
    </contour>
    <contour>
      <point x="20" y="14" type="line"/>
      <point x="178" y="14" type="line"/>
      <point x="178" y="0" type="line"/>
      <point x="20" y="0" type="line"/>
    </contour>
    <contour>
      <point x="560" y="14" type="line"/>
      <point x="925" y="14" type="line"/>
      <point x="925" y="0" type="line"/>
      <point x="560" y="0" type="line"/>
    </contour>
    <contour>
      <point x="477" y="298" type="line"/>
      <point x="632" y="750" type="line"/>
      <point x="647" y="750" type="line"/>
      <point x="387" y="-10" type="line"/>
      <point x="371" y="-10" type="line"/>
      <point x="93" y="750" type="line"/>
      <point x="309" y="750" type="line"/>
    </contour>
    <contour>
      <point x="91" y="736" type="line"/>
      <point x="15" y="736" type="line"/>
      <point x="15" y="750" type="line"/>
      <point x="106" y="750" type="line"/>
      <point x="106" y="0" type="line"/>
      <point x="91" y="0" type="line"/>
    </contour>
  </outline>
</glyph>
<glyph name="N" format="2">
  <advance width="3186"/>
  <unicode hex="004E"/>
  <outline>
    <contour>
      <point x="2634" y="3072" type="line"/>
      <point x="2696" y="3072" type="line"/>
      <point x="2696" y="-41" type="line"/>
      <point x="2599" y="-41" type="line"/>
      <point x="471" y="3072" type="line"/>
      <point x="1516" y="3072" type="line"/>
      <point x="2634" y="1462" type="line"/>
    </contour>
    <contour>
      <point x="2183" y="3072" type="line"/>
      <point x="3126" y="3072" type="line"/>
      <point x="3126" y="3016" type="line"/>
      <point x="2183" y="3016" type="line"/>
    </contour>
    <contour>
      <point x="61" y="56" type="line"/>
      <point x="1010" y="56" type="line"/>
      <point x="1010" y="0" type="line"/>
      <point x="61" y="0" type="line"/>
    </contour>
    <contour>
      <point x="483" y="3016" type="line"/>
      <point x="61" y="3016" type="line"/>
      <point x="61" y="3072" type="line"/>
      <point x="545" y="3072" type="line"/>
      <point x="545" y="0" type="line"/>
      <point x="483" y="0" type="line"/>
    </contour>
  </outline>
</glyph>
<glyph name="P" format="2">
  <advance width="735"/>
  <unicode hex="0050"/>
  <outline>
    <contour>
      <point x="105" y="750" type="line"/>
      <point x="320" y="750" type="line"/>
      <point x="320" y="0" type="line"/>
      <point x="105" y="0" type="line"/>
    </contour>
    <contour>
      <point x="15" y="14" type="line"/>
      <point x="410" y="14" type="line"/>
      <point x="410" y="0" type="line"/>
      <point x="15" y="0" type="line"/>
    </contour>
    <contour>
      <point x="410" y="333" type="curve" smooth="yes"/>
      <point x="250" y="333" type="line"/>
      <point x="250" y="347" type="line"/>
      <point x="370" y="347" type="line" smooth="yes"/>
      <point x="446" y="347"/>
      <point x="470" y="451"/>
      <point x="470" y="540" type="curve" smooth="yes"/>
      <point x="470" y="629"/>
      <point x="446" y="736"/>
      <point x="370" y="736" type="curve" smooth="yes"/>
      <point x="15" y="736" type="line"/>
      <point x="15" y="750" type="line"/>
      <point x="410" y="750" type="line" smooth="yes"/>
      <point x="611" y="750"/>
      <point x="700" y="670"/>
      <point x="700" y="540" type="curve" smooth="yes"/>
      <point x="700" y="410"/>
      <point x="611" y="333"/>
    </contour>
  </outline>
</glyph>
<glyph name="Q" format="2">
  <advance width="3276"/>
  <unicode hex="0051"/>
  <outline>
    <contour>
      <point x="1638" y="-41" type="curve" smooth="yes"/>
      <point x="725" y="-41"/>
      <point x="164" y="623"/>
      <point x="164" y="1536" type="curve" smooth="yes"/>
      <point x="164" y="2449"/>
      <point x="766" y="3113"/>
      <point x="1638" y="3113" type="curve" smooth="yes"/>
      <point x="2510" y="3113"/>
      <point x="3113" y="2449"/>
      <point x="3113" y="1536" type="curve" smooth="yes"/>
      <point x="3113" y="623"/>
      <point x="2551" y="-41"/>
    </contour>
    <contour>
      <point x="1638" y="3064" type="curve" smooth="yes"/>
      <point x="1253" y="3064"/>
      <point x="1126" y="2486"/>
      <point x="1126" y="1536" type="curve" smooth="yes"/>
      <point x="1126" y="586"/>
      <point x="1212" y="8"/>
      <point x="1638" y="8" type="curve" smooth="yes"/>
      <point x="2064" y="8"/>
      <point x="2150" y="586"/>
      <point x="2150" y="1536" type="curve" smooth="yes"/>
      <point x="2150" y="2486"/>
      <point x="2023" y="3064"/>
    </contour>
    <contour>
      <point x="2580" y="-967" type="curve"/>
      <point x="2580" y="-1024" type="line"/>
      <point x="1421" y="-1024"/>
      <point x="1147" y="-872"/>
      <point x="1147" y="41" type="curve"/>
      <point x="1471" y="-25"/>
      <point x="1794" y="-25"/>
      <point x="2109" y="41" type="curve"/>
      <point x="2109" y="-704"/>
      <point x="2113" y="-967"/>
    </contour>
  </outline>
</glyph>
<glyph name="R" format="2">
  <advance width="790"/>
  <unicode hex="0052"/>
  <outline>
    <contour>
      <point x="385" y="383" type="curve" smooth="yes"/>
      <point x="195" y="383" type="line"/>
      <point x="195" y="392" type="line"/>
      <point x="335" y="392" type="line" smooth="yes"/>
      <point x="431" y="392"/>
      <point x="475" y="436"/>
      <point x="475" y="565" type="curve" smooth="yes"/>
      <point x="475" y="694"/>
      <point x="431" y="736"/>
      <point x="335" y="736" type="curve" smooth="yes"/>
      <point x="15" y="736" type="line"/>
      <point x="15" y="750" type="line"/>
      <point x="385" y="750" type="line" smooth="yes"/>
      <point x="566" y="750"/>
      <point x="695" y="695"/>
      <point x="695" y="565" type="curve" smooth="yes"/>
      <point x="695" y="435"/>
      <point x="576" y="383"/>
    </contour>
    <contour>
      <point x="15" y="14" type="line"/>
      <point x="410" y="14" type="line"/>
      <point x="410" y="0" type="line"/>
      <point x="15" y="0" type="line"/>
    </contour>
    <contour>
      <point x="105" y="750" type="line"/>
      <point x="320" y="750" type="line"/>
      <point x="320" y="0" type="line"/>
      <point x="105" y="0" type="line"/>
    </contour>
    <contour>
      <point x="780" y="15" type="line"/>
      <point x="764" y="6"/>
      <point x="706" y="-10"/>
      <point x="630" y="-10" type="curve" smooth="yes"/>
      <point x="317" y="-10"/>
      <point x="586" y="378"/>
      <point x="340" y="378" type="curve" smooth="yes"/>
      <point x="195" y="378" type="line"/>
      <point x="195" y="385" type="line"/>
      <point x="480" y="385" type="line" smooth="yes"/>
      <point x="793" y="385"/>
      <point x="600" y="16"/>
      <point x="723" y="16" type="curve" smooth="yes"/>
      <point x="744" y="16"/>
      <point x="762" y="22"/>
      <point x="776" y="28" type="curve"/>
    </contour>
  </outline>
</glyph>
<glyph name="S" format="2">
  <advance width="5080"/>
  <unicode hex="0053"/>
  <outline>
    <contour>
      <point x="4440" y="4120" type="curve"/>
      <point x="4328" y="4120" type="line"/>
      <point x="3848" y="5128"/>
      <point x="3240" y="5936"/>
      <point x="2344" y="5936" type="curve" smooth="yes"/>
      <point x="1816" y="5936"/>
      <point x="1520" y="5632"/>
      <point x="1520" y="5160" type="curve" smooth="yes"/>
      <point x="1520" y="3920"/>
      <point x="4760" y="4240"/>
      <point x="4760" y="1840" type="curve" smooth="yes"/>
      <point x="4760" y="640"/>
      <point x="3728" y="-120"/>
      <point x="2600" y="-120" type="curve" smooth="yes"/>
      <point x="1352" y="-120"/>
      <point x="752" y="1080"/>
      <point x="320" y="2040" type="curve"/>
      <point x="432" y="2040" type="line"/>
      <point x="840" y="1192"/>
      <point x="1456" y="16"/>
      <point x="2552" y="16" type="curve" smooth="yes"/>
      <point x="3240" y="16"/>
      <point x="3640" y="448"/>
      <point x="3640" y="1000" type="curve" smooth="yes"/>
      <point x="3640" y="2400"/>
      <point x="400" y="1800"/>
      <point x="400" y="4360" type="curve" smooth="yes"/>
      <point x="400" y="5480"/>
      <point x="1328" y="6080"/>
      <point x="2296" y="6080" type="curve" smooth="yes"/>
      <point x="3320" y="6080"/>
      <point x="3960" y="5248"/>
    </contour>
    <contour>
      <point x="4360" y="6080" type="line"/>
      <point x="4440" y="6080" type="line"/>
      <point x="4440" y="4120" type="line"/>
      <point x="4328" y="4368"/>
      <point x="3560" y="5536"/>
      <point x="3400" y="5680" type="curve"/>
    </contour>
    <contour>
      <point x="400" y="-80" type="line"/>
      <point x="320" y="-80" type="line"/>
      <point x="320" y="2040" type="line"/>
      <point x="456" y="1752"/>
      <point x="1272" y="480"/>
      <point x="1416" y="352" type="curve"/>
    </contour>
  </outline>
</glyph>
<glyph name="T" format="2">
  <advance width="5800"/>
  <unicode hex="0054"/>
  <outline>
    <contour>
      <point x="1160" y="112" type="line"/>
      <point x="4640" y="112" type="line"/>
      <point x="4640" y="0" type="line"/>
      <point x="1160" y="0" type="line"/>
    </contour>
    <contour>
      <point x="2040" y="5944" type="line"/>
      <point x="3760" y="5944" type="line"/>
      <point x="3760" y="0" type="line"/>
      <point x="2040" y="0" type="line"/>
    </contour>
    <contour>
      <point x="4000" y="5888" type="curve" smooth="yes"/>
      <point x="1800" y="5888" type="line" smooth="yes"/>
      <point x="1024" y="5888"/>
      <point x="472" y="4976"/>
      <point x="232" y="3960" type="curve"/>
      <point x="120" y="3960" type="line"/>
      <point x="120" y="6000" type="line"/>
      <point x="5680" y="6000" type="line"/>
      <point x="5680" y="3960" type="line"/>
      <point x="5568" y="3960" type="line"/>
      <point x="5328" y="4976"/>
      <point x="4776" y="5888"/>
    </contour>
  </outline>
</glyph>
<glyph name="U" format="2">
  <advance width="3072"/>
  <unicode hex="0055"/>
  <outline>
    <contour>
      <point x="2212" y="3072" type="line"/>
      <point x="3011" y="3072" type="line"/>
      <point x="3011" y="3016" type="line"/>
      <point x="2212" y="3016" type="line"/>
    </contour>
    <contour>
      <point x="61" y="3072" type="line"/>
      <point x="1720" y="3072" type="line"/>
      <point x="1720" y="3016" type="line"/>
      <point x="61" y="3016" type="line"/>
    </contour>
    <contour>
      <point x="2572" y="3072" type="line"/>
      <point x="2630" y="3072" type="line"/>
      <point x="2630" y="942" type="line" smooth="yes"/>
      <point x="2630" y="266"/>
      <point x="2306" y="-61"/>
      <point x="1618" y="-61" type="curve" smooth="yes"/>
      <point x="787" y="-61"/>
      <point x="430" y="233"/>
      <point x="430" y="942" type="curve" smooth="yes"/>
      <point x="430" y="3072" type="line"/>
      <point x="1311" y="3072" type="line"/>
      <point x="1311" y="983" type="line" smooth="yes"/>
      <point x="1311" y="442"/>
      <point x="1390" y="49"/>
      <point x="1857" y="49" type="curve" smooth="yes"/>
      <point x="2229" y="49"/>
      <point x="2572" y="301"/>
      <point x="2572" y="942" type="curve" smooth="yes"/>
    </contour>
  </outline>
</glyph>
<glyph name="Y" format="2">
  <advance width="6120"/>
  <unicode hex="0059"/>
  <outline>
    <contour>
      <point x="6040" y="5888" type="line"/>
      <point x="4360" y="5888" type="line"/>
      <point x="4360" y="6000" type="line"/>
      <point x="6040" y="6000" type="line"/>
    </contour>
    <contour>
      <point x="3360" y="5888" type="line"/>
      <point x="80" y="5888" type="line"/>
      <point x="80" y="6000" type="line"/>
      <point x="3360" y="6000" type="line"/>
    </contour>
    <contour>
      <point x="1560" y="112" type="line"/>
      <point x="4800" y="112" type="line"/>
      <point x="4800" y="0" type="line"/>
      <point x="1560" y="0" type="line"/>
    </contour>
    <contour>
      <point x="3960" y="3272" type="line"/>
      <point x="5312" y="5984" type="line"/>
      <point x="5448" y="5984" type="line"/>
      <point x="4000" y="3064" type="line"/>
      <point x="4000" y="0" type="line"/>
      <point x="2280" y="0" type="line"/>
      <point x="2280" y="2880" type="line"/>
      <point x="560" y="6000" type="line"/>
      <point x="2560" y="6000" type="line"/>
    </contour>
  </outline>
</glyph>
<glyph name="Z" format="2">
  <advance width="2764"/>
  <unicode hex="005A"/>
  <outline>
    <contour>
      <point x="123" y="3072" type="line"/>
      <point x="2580" y="3072" type="line"/>
      <point x="2580" y="3016" type="line"/>
      <point x="1044" y="56" type="line"/>
      <point x="1638" y="56" type="line" smooth="yes"/>
      <point x="2199" y="56"/>
      <point x="2402" y="381"/>
      <point x="2566" y="901" type="curve"/>
      <point x="2621" y="901" type="line"/>
      <point x="2621" y="0" type="line"/>
      <point x="41" y="0" type="line"/>
      <point x="41" y="56" type="line"/>
      <point x="1577" y="3016" type="line"/>
      <point x="1106" y="3016" type="line" smooth="yes"/>
      <point x="545" y="3016"/>
      <point x="344" y="2691"/>
      <point x="180" y="2253" type="curve"/>
      <point x="123" y="2253" type="line"/>
    </contour>
  </outline>
</glyph>
<glyph name="grave" format="2">
  <advance width="425"/>
  <unicode hex="0060"/>
  <outline>
    <contour>
      <point x="150" y="680" type="line" smooth="yes"/>
      <point x="101" y="670"/>
      <point x="55" y="706"/>
      <point x="55" y="755" type="curve" smooth="yes"/>
      <point x="55" y="804"/>
      <point x="110" y="850"/>
      <point x="160" y="828" type="curve" smooth="yes"/>
      <point x="368" y="737" type="line"/>
      <point x="365" y="723" type="line"/>
    </contour>
  </outline>
</glyph>
<glyph name="a" format="2">
  <advance width="5096"/>
  <unicode hex="0061"/>
  <outline>
    <contour>
      <point x="5072" y="504" type="line"/>
      <point x="4888" y="104"/>
      <point x="4392" y="-80"/>
      <point x="3808" y="-80" type="curve" smooth="yes"/>
      <point x="3192" y="-80"/>
      <point x="2672" y="112"/>
      <point x="2672" y="664" type="curve" smooth="yes"/>
      <point x="2672" y="2440" type="line" smooth="yes"/>
      <point x="2672" y="3136"/>
      <point x="2424" y="3616"/>
      <point x="1864" y="3616" type="curve" smooth="yes"/>
      <point x="1592" y="3616"/>
      <point x="1392" y="3536"/>
      <point x="1272" y="3464" type="curve"/>
      <point x="1712" y="3576"/>
      <point x="2232" y="3360"/>
      <point x="2232" y="2864" type="curve" smooth="yes"/>
      <point x="2232" y="2464"/>
      <point x="1800" y="2168"/>
      <point x="1360" y="2168" type="curve" smooth="yes"/>
      <point x="880" y="2168"/>
      <point x="544" y="2480"/>
      <point x="544" y="2848" type="curve" smooth="yes"/>
      <point x="544" y="3384"/>
      <point x="1240" y="3744"/>
      <point x="2128" y="3744" type="curve" smooth="yes"/>
      <point x="3568" y="3744"/>
      <point x="4192" y="3248"/>
      <point x="4192" y="2440" type="curve" smooth="yes"/>
      <point x="4192" y="480" type="line" smooth="yes"/>
      <point x="4192" y="320"/>
      <point x="4296" y="200"/>
      <point x="4488" y="200" type="curve" smooth="yes"/>
      <point x="4624" y="200"/>
      <point x="4832" y="248"/>
      <point x="4992" y="544" type="curve"/>
    </contour>
    <contour>
      <point x="2016" y="2064" type="curve" smooth="yes"/>
      <point x="3088" y="2064" type="line"/>
      <point x="3088" y="1952" type="line"/>
      <point x="2576" y="1952" type="line" smooth="yes"/>
      <point x="2208" y="1952"/>
      <point x="1880" y="1560"/>
      <point x="1880" y="1064" type="curve" smooth="yes"/>
      <point x="1880" y="712"/>
      <point x="1984" y="496"/>
      <point x="2184" y="496" type="curve" smooth="yes"/>
      <point x="2336" y="496"/>
      <point x="2672" y="640"/>
      <point x="2672" y="1448" type="curve"/>
      <point x="2760" y="1448" type="line"/>
      <point x="2760" y="456"/>
      <point x="2232" y="-80"/>
      <point x="1344" y="-80" type="curve" smooth="yes"/>
      <point x="712" y="-80"/>
      <point x="264" y="312"/>
      <point x="264" y="904" type="curve" smooth="yes"/>
      <point x="264" y="1576"/>
      <point x="880" y="2064"/>
    </contour>
  </outline>
</glyph>
<glyph name="b" format="2">
  <advance width="5352"/>
  <unicode hex="0062"/>
  <outline>
    <contour>
      <point x="2104" y="1840" type="curve" smooth="yes"/>
      <point x="2104" y="3056"/>
      <point x="2560" y="3752"/>
      <point x="3432" y="3752" type="curve" smooth="yes"/>
      <point x="4304" y="3752"/>
      <point x="5128" y="3040"/>
      <point x="5128" y="1840" type="curve" smooth="yes"/>
      <point x="5128" y="640"/>
      <point x="4304" y="-80"/>
      <point x="3432" y="-80" type="curve" smooth="yes"/>
      <point x="2568" y="-80"/>
      <point x="2104" y="624"/>
    </contour>
    <contour>
      <point x="2184" y="1840" type="curve" smooth="yes"/>
      <point x="2184" y="760"/>
      <point x="2672" y="144"/>
      <point x="3024" y="144" type="curve" smooth="yes"/>
      <point x="3296" y="144"/>
      <point x="3408" y="608"/>
      <point x="3408" y="1840" type="curve" smooth="yes"/>
      <point x="3408" y="3072"/>
      <point x="3296" y="3528"/>
      <point x="3024" y="3528" type="curve" smooth="yes"/>
      <point x="2672" y="3528"/>
      <point x="2184" y="2920"/>
    </contour>
    <contour>
      <point x="664" y="5888" type="line"/>
      <point x="104" y="5888" type="line"/>
      <point x="104" y="6000" type="line"/>
      <point x="2184" y="6000" type="line"/>
      <point x="2184" y="0" type="line"/>
      <point x="104" y="0" type="line"/>
      <point x="104" y="112" type="line"/>
      <point x="664" y="112" type="line"/>
    </contour>
  </outline>
</glyph>
<glyph name="c" format="2">
  <advance width="2236"/>
  <unicode hex="0063"/>
  <outline>
    <contour>
      <point x="1790" y="1692" type="curve"/>
      <point x="1720" y="1762"/>
      <point x="1527" y="1855"/>
      <point x="1339" y="1855" type="curve" smooth="yes"/>
      <point x="1056" y="1855"/>
      <point x="1036" y="1327"/>
      <point x="1036" y="942" type="curve" smooth="yes"/>
      <point x="1036" y="475"/>
      <point x="1131" y="66"/>
      <point x="1397" y="66" type="curve" smooth="yes"/>
      <point x="1684" y="66"/>
      <point x="1909" y="267"/>
      <point x="2011" y="586" type="curve"/>
      <point x="2073" y="586" type="line"/>
      <point x="1967" y="230"/>
      <point x="1708" y="-41"/>
      <point x="1212" y="-41" type="curve" smooth="yes"/>
      <point x="553" y="-41"/>
      <point x="115" y="246"/>
      <point x="115" y="942" type="curve" smooth="yes"/>
      <point x="115" y="1556"/>
      <point x="496" y="1925"/>
      <point x="1237" y="1925" type="curve" smooth="yes"/>
      <point x="1696" y="1925"/>
      <point x="2101" y="1671"/>
      <point x="2101" y="1335" type="curve" smooth="yes"/>
      <point x="2101" y="1085"/>
      <point x="1929" y="938"/>
      <point x="1683" y="938" type="curve" smooth="yes"/>
      <point x="1458" y="938"/>
      <point x="1245" y="1045"/>
      <point x="1245" y="1352" type="curve" smooth="yes"/>
      <point x="1245" y="1618"/>
      <point x="1458" y="1741"/>
      <point x="1618" y="1741" type="curve" smooth="yes"/>
      <point x="1712" y="1741"/>
      <point x="1761" y="1721"/>
    </contour>
  </outline>
</glyph>
<glyph name="d" format="2">
  <advance width="669"/>
  <unicode hex="0064"/>
  <outline>
    <contour>
      <point x="407" y="230" type="curve" smooth="yes"/>
      <point x="407" y="78"/>
      <point x="349" y="-10"/>
      <point x="240" y="-10" type="curve" smooth="yes"/>
      <point x="131" y="-10"/>
      <point x="28" y="80"/>
      <point x="28" y="230" type="curve" smooth="yes"/>
      <point x="28" y="380"/>
      <point x="131" y="469"/>
      <point x="240" y="469" type="curve" smooth="yes"/>
      <point x="348" y="469"/>
      <point x="407" y="382"/>
    </contour>
    <contour>
      <point x="396" y="230" type="curve" smooth="yes"/>
      <point x="396" y="378"/>
      <point x="330" y="441"/>
      <point x="292" y="441" type="curve" smooth="yes"/>
      <point x="258" y="441"/>
      <point x="243" y="390"/>
      <point x="243" y="230" type="curve" smooth="yes"/>
      <point x="243" y="70"/>
      <point x="264" y="25"/>
      <point x="298" y="25" type="curve" smooth="yes"/>
      <point x="336" y="25"/>
      <point x="396" y="82"/>
    </contour>
    <contour>
      <point x="656" y="14" type="line"/>
      <point x="656" y="0" type="line"/>
      <point x="396" y="0" type="line"/>
      <point x="396" y="736" type="line"/>
      <point x="326" y="736" type="line"/>
      <point x="326" y="750" type="line"/>
      <point x="586" y="750" type="line"/>
      <point x="586" y="14" type="line"/>
    </contour>
  </outline>
</glyph>
<glyph name="e" format="2">
  <advance width="2229"/>
  <unicode hex="0065"/>
  <outline>
    <contour>
      <point x="390" y="1040" type="line"/>
      <point x="390" y="1098" type="line"/>
      <point x="1328" y="1098" type="line"/>
      <point x="1324" y="1473"/>
      <point x="1320" y="1868"/>
      <point x="1160" y="1868" type="curve" smooth="yes"/>
      <point x="1000" y="1868"/>
      <point x="956" y="1491"/>
      <point x="956" y="1024" type="curve" smooth="yes"/>
      <point x="956" y="434"/>
      <point x="1021" y="54"/>
      <point x="1345" y="54" type="curve" smooth="yes"/>
      <point x="1678" y="54"/>
      <point x="1957" y="270"/>
      <point x="2059" y="586" type="curve"/>
      <point x="2115" y="586" type="line"/>
      <point x="2009" y="230"/>
      <point x="1710" y="-41"/>
      <point x="1173" y="-41" type="curve" smooth="yes"/>
      <point x="555" y="-41"/>
      <point x="116" y="287"/>
      <point x="116" y="942" type="curve" smooth="yes"/>
      <point x="116" y="1597"/>
      <point x="542" y="1925"/>
      <point x="1160" y="1925" type="curve" smooth="yes"/>
      <point x="1770" y="1925"/>
      <point x="2111" y="1486"/>
      <point x="2111" y="1040" type="curve"/>
    </contour>
  </outline>
</glyph>
<glyph name="f" format="2">
  <advance width="3408"/>
  <unicode hex="0066"/>
  <outline>
    <contour>
      <point x="64" y="112" type="line"/>
      <point x="3184" y="112" type="line"/>
      <point x="3184" y="0" type="line"/>
      <point x="64" y="0" type="line"/>
    </contour>
    <contour>
      <point x="64" y="3680" type="line"/>
      <point x="3344" y="3680" type="line"/>
      <point x="3344" y="3568" type="line"/>
      <point x="64" y="3568" type="line"/>
    </contour>
    <contour>
      <point x="3944" y="5616" type="curve"/>
      <point x="3824" y="5736"/>
      <point x="3576" y="5968"/>
      <point x="3136" y="5968" type="curve" smooth="yes"/>
      <point x="2496" y="5968"/>
      <point x="2224" y="5336"/>
      <point x="2224" y="4320" type="curve" smooth="yes"/>
      <point x="2224" y="0" type="line"/>
      <point x="784" y="0" type="line"/>
      <point x="784" y="4096" type="line" smooth="yes"/>
      <point x="784" y="5304"/>
      <point x="1800" y="6080"/>
      <point x="3080" y="6080" type="curve" smooth="yes"/>
      <point x="3808" y="6080"/>
      <point x="4304" y="5584"/>
      <point x="4304" y="5048" type="curve" smooth="yes"/>
      <point x="4304" y="4560"/>
      <point x="4008" y="4232"/>
      <point x="3528" y="4232" type="curve" smooth="yes"/>
      <point x="3088" y="4232"/>
      <point x="2680" y="4504"/>
      <point x="2680" y="4984" type="curve" smooth="yes"/>
      <point x="2680" y="5440"/>
      <point x="3032" y="5776"/>
      <point x="3440" y="5776" type="curve" smooth="yes"/>
      <point x="3680" y="5776"/>
      <point x="3880" y="5680"/>
    </contour>
  </outline>
</glyph>
<glyph name="g" format="2">
  <advance width="5384"/>
  <unicode hex="0067"/>
  <outline>
    <contour>
      <point x="360" y="536" type="curve" smooth="yes"/>
      <point x="360" y="1232"/>
      <point x="1496" y="1376"/>
      <point x="2256" y="1376" type="curve"/>
      <point x="2248" y="1320" type="line"/>
      <point x="1904" y="1320"/>
      <point x="1224" y="1232"/>
      <point x="1224" y="1000" type="curve" smooth="yes"/>
      <point x="1224" y="824"/>
      <point x="1640" y="792"/>
      <point x="2080" y="792" type="curve" smooth="yes"/>
      <point x="2360" y="792"/>
      <point x="2664" y="800"/>
      <point x="2888" y="800" type="curve" smooth="yes"/>
      <point x="3488" y="800"/>
      <point x="4304" y="432"/>
      <point x="4304" y="-656" type="curve" smooth="yes"/>
      <point x="4304" y="-1624"/>
      <point x="3504" y="-2080"/>
      <point x="2224" y="-2080" type="curve" smooth="yes"/>
      <point x="1240" y="-2080"/>
      <point x="104" y="-1840"/>
      <point x="104" y="-1112" type="curve" smooth="yes"/>
      <point x="104" y="-416"/>
      <point x="1064" y="-320"/>
      <point x="1424" y="-320" type="curve" smooth="yes"/>
      <point x="1504" y="-320" type="line"/>
      <point x="1304" y="-424"/>
      <point x="1264" y="-776"/>
      <point x="1264" y="-872" type="curve" smooth="yes"/>
      <point x="1264" y="-1576"/>
      <point x="1720" y="-1944"/>
      <point x="2328" y="-1944" type="curve" smooth="yes"/>
      <point x="2928" y="-1944"/>
      <point x="3800" y="-1848"/>
      <point x="3800" y="-1160" type="curve" smooth="yes"/>
      <point x="3800" y="-728"/>
      <point x="3384" y="-472"/>
      <point x="2864" y="-472" type="curve" smooth="yes"/>
      <point x="2616" y="-472"/>
      <point x="2128" y="-472"/>
      <point x="1952" y="-472" type="curve" smooth="yes"/>
      <point x="1232" y="-472"/>
      <point x="360" y="-200"/>
    </contour>
    <contour>
      <point x="1864" y="2520" type="curve" smooth="yes"/>
      <point x="1864" y="1768"/>
      <point x="1904" y="1392"/>
      <point x="2136" y="1392" type="curve" smooth="yes"/>
      <point x="2288" y="1392"/>
      <point x="2408" y="1768"/>
      <point x="2408" y="2520" type="curve" smooth="yes"/>
      <point x="2408" y="3272"/>
      <point x="2288" y="3648"/>
      <point x="2136" y="3648" type="curve" smooth="yes"/>
      <point x="1984" y="3648"/>
      <point x="1864" y="3272"/>
    </contour>
    <contour>
      <point x="304" y="2520" type="curve" smooth="yes"/>
      <point x="304" y="3400"/>
      <point x="1248" y="3760"/>
      <point x="2136" y="3760" type="curve" smooth="yes"/>
      <point x="3024" y="3760"/>
      <point x="3968" y="3400"/>
      <point x="3968" y="2520" type="curve" smooth="yes"/>
      <point x="3968" y="1640"/>
      <point x="3024" y="1280"/>
      <point x="2136" y="1280" type="curve" smooth="yes"/>
      <point x="1248" y="1280"/>
      <point x="304" y="1640"/>
    </contour>
    <contour>
      <point x="5024" y="3288" type="curve"/>
      <point x="4952" y="3464"/>
      <point x="4720" y="3608"/>
      <point x="4408" y="3608" type="curve" smooth="yes"/>
      <point x="3976" y="3608"/>
      <point x="3544" y="3408"/>
      <point x="3384" y="2712" type="curve"/>
      <point x="3288" y="2776" type="line"/>
      <point x="3448" y="3504"/>
      <point x="3928" y="3720"/>
      <point x="4408" y="3720" type="curve" smooth="yes"/>
      <point x="5056" y="3720"/>
      <point x="5320" y="3256"/>
      <point x="5320" y="2952" type="curve" smooth="yes"/>
      <point x="5320" y="2432"/>
      <point x="4992" y="2272"/>
      <point x="4712" y="2272" type="curve" smooth="yes"/>
      <point x="4432" y="2272"/>
      <point x="4112" y="2448"/>
      <point x="4112" y="2872" type="curve" smooth="yes"/>
      <point x="4112" y="3176"/>
      <point x="4328" y="3448"/>
      <point x="4672" y="3448" type="curve" smooth="yes"/>
      <point x="4856" y="3448"/>
      <point x="4984" y="3360"/>
    </contour>
  </outline>
</glyph>
<glyph name="h" format="2">
  <advance width="5288"/>
  <unicode hex="0068"/>
  <outline>
    <contour>
      <point x="3104" y="2520" type="line" smooth="yes"/>
      <point x="3104" y="3192"/>
      <point x="3040" y="3280"/>
      <point x="2816" y="3280" type="curve" smooth="yes"/>
      <point x="2496" y="3280"/>
      <point x="2184" y="2576"/>
      <point x="2184" y="1784" type="curve"/>
      <point x="2104" y="1784" type="line"/>
      <point x="2104" y="2600"/>
      <point x="2344" y="3760"/>
      <point x="3488" y="3760" type="curve" smooth="yes"/>
      <point x="4344" y="3760"/>
      <point x="4624" y="3248"/>
      <point x="4624" y="2552" type="curve" smooth="yes"/>
      <point x="4624" y="0" type="line"/>
      <point x="3104" y="0" type="line"/>
    </contour>
    <contour>
      <point x="2784" y="112" type="line"/>
      <point x="5184" y="112" type="line"/>
      <point x="5184" y="0" type="line"/>
      <point x="2784" y="0" type="line"/>
    </contour>
    <contour>
      <point x="104" y="112" type="line"/>
      <point x="2504" y="112" type="line"/>
      <point x="2504" y="0" type="line"/>
      <point x="104" y="0" type="line"/>
    </contour>
    <contour>
      <point x="664" y="5888" type="line"/>
      <point x="104" y="5888" type="line"/>
      <point x="104" y="6000" type="line"/>
      <point x="2184" y="6000" type="line"/>
      <point x="2184" y="0" type="line"/>
      <point x="664" y="0" type="line"/>
    </contour>
  </outline>
</glyph>
<glyph name="i" format="2">
  <advance width="352"/>
  <unicode hex="0069"/>
  <outline>
    <contour>
      <point x="18" y="14" type="line"/>
      <point x="348" y="14" type="line"/>
      <point x="348" y="0" type="line"/>
      <point x="18" y="0" type="line"/>
    </contour>
    <contour>
      <point x="63" y="650" type="curve" smooth="yes"/>
      <point x="63" y="713"/>
      <point x="110" y="760"/>
      <point x="173" y="760" type="curve" smooth="yes"/>
      <point x="236" y="760"/>
      <point x="283" y="713"/>
      <point x="283" y="650" type="curve" smooth="yes"/>
      <point x="283" y="587"/>
      <point x="236" y="540"/>
      <point x="173" y="540" type="curve" smooth="yes"/>
      <point x="110" y="540"/>
      <point x="63" y="587"/>
    </contour>
    <contour>
      <point x="88" y="446" type="line"/>
      <point x="18" y="446" type="line"/>
      <point x="18" y="460" type="line"/>
      <point x="278" y="460" type="line"/>
      <point x="278" y="0" type="line"/>
      <point x="88" y="0" type="line"/>
    </contour>
  </outline>
</glyph>
<glyph name="j" format="2">
  <advance width="1488"/>
  <unicode hex="006A"/>
  <outline>
    <contour>
      <point x="329" y="2662" type="curve" smooth="yes"/>
      <point x="329" y="2920"/>
      <point x="521" y="3113"/>
      <point x="779" y="3113" type="curve" smooth="yes"/>
      <point x="1037" y="3113"/>
      <point x="1230" y="2920"/>
      <point x="1230" y="2662" type="curve" smooth="yes"/>
      <point x="1230" y="2404"/>
      <point x="1037" y="2212"/>
      <point x="779" y="2212" type="curve" smooth="yes"/>
      <point x="521" y="2212"/>
      <point x="329" y="2404"/>
    </contour>
    <contour>
      <point x="1201" y="1884" type="line"/>
      <point x="1201" y="-49" type="line" smooth="yes"/>
      <point x="1201" y="-586"/>
      <point x="681" y="-1065"/>
      <point x="67" y="-1065" type="curve" smooth="yes"/>
      <point x="-347" y="-1065"/>
      <point x="-683" y="-855"/>
      <point x="-683" y="-548" type="curve" smooth="yes"/>
      <point x="-683" y="-302"/>
      <point x="-478" y="-119"/>
      <point x="-245" y="-119" type="curve" smooth="yes"/>
      <point x="-20" y="-119"/>
      <point x="190" y="-258"/>
      <point x="190" y="-504" type="curve" smooth="yes"/>
      <point x="190" y="-729"/>
      <point x="17" y="-897"/>
      <point x="-266" y="-897" type="curve" smooth="yes"/>
      <point x="-363" y="-897"/>
      <point x="-393" y="-888"/>
      <point x="-441" y="-869" type="curve"/>
      <point x="-346" y="-926"/>
      <point x="-219" y="-994"/>
      <point x="-12" y="-994" type="curve" smooth="yes"/>
      <point x="480" y="-994"/>
      <point x="416" y="-434"/>
      <point x="416" y="86" type="curve" smooth="yes"/>
      <point x="423" y="1828" type="line"/>
      <point x="54" y="1828" type="line"/>
      <point x="54" y="1884" type="line"/>
    </contour>
  </outline>
</glyph>
<glyph name="k" format="2">
  <advance width="692"/>
  <unicode hex="006B"/>
  <outline>
    <contour>
      <point x="651" y="0" type="line"/>
      <point x="418" y="0" type="line"/>
      <point x="245" y="271" type="line"/>
      <point x="537" y="460" type="line"/>
      <point x="560" y="460" type="line"/>
      <point x="403" y="356" type="line"/>
    </contour>
    <contour>
      <point x="362" y="14" type="line"/>
      <point x="689" y="14" type="line"/>
      <point x="689" y="0" type="line"/>
      <point x="362" y="0" type="line"/>
    </contour>
    <contour>
      <point x="625" y="446" type="line"/>
      <point x="402" y="446" type="line"/>
      <point x="402" y="460" type="line"/>
      <point x="625" y="460" type="line"/>
    </contour>
    <contour>
      <point x="13" y="14" type="line"/>
      <point x="333" y="14" type="line"/>
      <point x="333" y="0" type="line"/>
      <point x="13" y="0" type="line"/>
    </contour>
    <contour>
      <point x="103" y="736" type="line"/>
      <point x="13" y="736" type="line"/>
      <point x="13" y="750" type="line"/>
      <point x="293" y="750" type="line"/>
      <point x="293" y="0" type="line"/>
      <point x="103" y="0" type="line"/>
    </contour>
  </outline>
</glyph>
<glyph name="l" format="2">
  <advance width="3168"/>
  <unicode hex="006C"/>
  <outline>
    <contour>
      <point x="104" y="112" type="line"/>
      <point x="3064" y="112" type="line"/>
      <point x="3064" y="0" type="line"/>
      <point x="104" y="0" type="line"/>
    </contour>
    <contour>
      <point x="824" y="5888" type="line"/>
      <point x="104" y="5888" type="line"/>
      <point x="104" y="6000" type="line"/>
      <point x="2344" y="6000" type="line"/>
      <point x="2344" y="0" type="line"/>
      <point x="824" y="0" type="line"/>
    </contour>
  </outline>
</glyph>
<glyph name="m" format="2">
  <advance width="926"/>
  <unicode hex="006D"/>
  <outline>
    <contour>
      <point x="558" y="319" type="curve" smooth="yes"/>
      <point x="558" y="0" type="line"/>
      <point x="368" y="0" type="line"/>
      <point x="368" y="315" type="line" smooth="yes"/>
      <point x="368" y="399"/>
      <point x="362" y="417"/>
      <point x="343" y="417" type="curve" smooth="yes"/>
      <point x="309" y="417"/>
      <point x="273" y="327"/>
      <point x="273" y="223" type="curve"/>
      <point x="263" y="223" type="line"/>
      <point x="263" y="325"/>
      <point x="283" y="470"/>
      <point x="426" y="470" type="curve" smooth="yes"/>
      <point x="523" y="470"/>
      <point x="558" y="406"/>
    </contour>
    <contour>
      <point x="13" y="14" type="line"/>
      <point x="308" y="14" type="line"/>
      <point x="308" y="0" type="line"/>
      <point x="13" y="0" type="line"/>
    </contour>
    <contour>
      <point x="333" y="14" type="line"/>
      <point x="593" y="14" type="line"/>
      <point x="593" y="0" type="line"/>
      <point x="333" y="0" type="line"/>
    </contour>
    <contour>
      <point x="618" y="14" type="line"/>
      <point x="913" y="14" type="line"/>
      <point x="913" y="0" type="line"/>
      <point x="618" y="0" type="line"/>
    </contour>
    <contour>
      <point x="83" y="446" type="line"/>
      <point x="13" y="446" type="line"/>
      <point x="13" y="460" type="line"/>
      <point x="273" y="460" type="line"/>
      <point x="273" y="0" type="line"/>
      <point x="83" y="0" type="line"/>
    </contour>
    <contour>
      <point x="843" y="319" type="curve" smooth="yes"/>
      <point x="843" y="0" type="line"/>
      <point x="653" y="0" type="line"/>
      <point x="653" y="315" type="line" smooth="yes"/>
      <point x="653" y="399"/>
      <point x="648" y="417"/>
      <point x="628" y="417" type="curve" smooth="yes"/>
      <point x="594" y="417"/>
      <point x="558" y="327"/>
      <point x="558" y="223" type="curve"/>
      <point x="549" y="223" type="line"/>
      <point x="549" y="325"/>
      <point x="564" y="470"/>
      <point x="711" y="470" type="curve" smooth="yes"/>
      <point x="808" y="470"/>
      <point x="843" y="406"/>
    </contour>
  </outline>
</glyph>
<glyph name="o" format="2">
  <advance width="4592"/>
  <unicode hex="006F"/>
  <outline>
    <contour>
      <point x="1784" y="1840" type="curve" smooth="yes"/>
      <point x="1784" y="688"/>
      <point x="1984" y="32"/>
      <point x="2296" y="32" type="curve" smooth="yes"/>
      <point x="2608" y="32"/>
      <point x="2808" y="688"/>
      <point x="2808" y="1840" type="curve" smooth="yes"/>
      <point x="2808" y="2992"/>
      <point x="2608" y="3648"/>
      <point x="2296" y="3648" type="curve" smooth="yes"/>
      <point x="1984" y="3648"/>
      <point x="1784" y="2992"/>
    </contour>
    <contour>
      <point x="224" y="1840" type="curve" smooth="yes"/>
      <point x="224" y="2880"/>
      <point x="1008" y="3760"/>
      <point x="2296" y="3760" type="curve" smooth="yes"/>
      <point x="3584" y="3760"/>
      <point x="4368" y="2880"/>
      <point x="4368" y="1840" type="curve" smooth="yes"/>
      <point x="4368" y="800"/>
      <point x="3584" y="-80"/>
      <point x="2296" y="-80" type="curve" smooth="yes"/>
      <point x="1008" y="-80"/>
      <point x="224" y="800"/>
    </contour>
  </outline>
</glyph>
<glyph name="p" format="2">
  <advance width="669"/>
  <unicode hex="0070"/>
  <outline>
    <contour>
      <point x="263" y="230" type="curve" smooth="yes"/>
      <point x="263" y="382"/>
      <point x="320" y="469"/>
      <point x="429" y="469" type="curve" smooth="yes"/>
      <point x="538" y="469"/>
      <point x="641" y="380"/>
      <point x="641" y="230" type="curve" smooth="yes"/>
      <point x="641" y="80"/>
      <point x="538" y="-10"/>
      <point x="429" y="-10" type="curve" smooth="yes"/>
      <point x="321" y="-10"/>
      <point x="263" y="78"/>
    </contour>
    <contour>
      <point x="273" y="230" type="curve" smooth="yes"/>
      <point x="273" y="82"/>
      <point x="342" y="18"/>
      <point x="375" y="18" type="curve" smooth="yes"/>
      <point x="415" y="18"/>
      <point x="426" y="89"/>
      <point x="426" y="230" type="curve" smooth="yes"/>
      <point x="426" y="371"/>
      <point x="418" y="441"/>
      <point x="378" y="441" type="curve" smooth="yes"/>
      <point x="340" y="441"/>
      <point x="273" y="378"/>
    </contour>
    <contour>
      <point x="13" y="-236" type="line"/>
      <point x="343" y="-236" type="line"/>
      <point x="343" y="-250" type="line"/>
      <point x="13" y="-250" type="line"/>
    </contour>
    <contour>
      <point x="83" y="446" type="line"/>
      <point x="13" y="446" type="line"/>
      <point x="13" y="460" type="line"/>
      <point x="273" y="460" type="line"/>
      <point x="273" y="-250" type="line"/>
      <point x="83" y="-250" type="line"/>
    </contour>
  </outline>
</glyph>
<glyph name="q" format="2">
  <advance width="5352"/>
  <unicode hex="0071"/>
  <outline>
    <contour>
      <point x="3256" y="1840" type="curve" smooth="yes"/>
      <point x="3256" y="624"/>
      <point x="2792" y="-80"/>
      <point x="1920" y="-80" type="curve" smooth="yes"/>
      <point x="1048" y="-80"/>
      <point x="224" y="640"/>
      <point x="224" y="1840" type="curve" smooth="yes"/>
      <point x="224" y="3040"/>
      <point x="1048" y="3752"/>
      <point x="1920" y="3752" type="curve" smooth="yes"/>
      <point x="2784" y="3752"/>
      <point x="3256" y="3056"/>
    </contour>
    <contour>
      <point x="3168" y="1840" type="curve" smooth="yes"/>
      <point x="3168" y="3024"/>
      <point x="2640" y="3528"/>
      <point x="2336" y="3528" type="curve" smooth="yes"/>
      <point x="2064" y="3528"/>
      <point x="1944" y="2968"/>
      <point x="1944" y="1840" type="curve" smooth="yes"/>
      <point x="1944" y="712"/>
      <point x="2064" y="200"/>
      <point x="2336" y="200" type="curve" smooth="yes"/>
      <point x="2744" y="200"/>
      <point x="3168" y="656"/>
    </contour>
    <contour>
      <point x="5248" y="-1888" type="line"/>
      <point x="5248" y="-2000" type="line"/>
      <point x="2608" y="-2000" type="line"/>
      <point x="2608" y="-1888" type="line"/>
    </contour>
    <contour>
      <point x="5248" y="3680" type="line"/>
      <point x="5248" y="3568" type="line"/>
      <point x="4688" y="3568" type="line"/>
      <point x="4688" y="-2000" type="line"/>
      <point x="3168" y="-2000" type="line"/>
      <point x="3168" y="3680" type="line"/>
    </contour>
  </outline>
</glyph>
<glyph name="r" format="2">
  <advance width="2243"/>
  <unicode hex="0072"/>
  <outline>
    <contour>
      <point x="2011" y="1716" type="curve"/>
      <point x="1886" y="1841"/>
      <point x="1763" y="1860"/>
      <point x="1645" y="1860" type="curve" smooth="yes"/>
      <point x="1200" y="1860"/>
      <point x="1119" y="1328"/>
      <point x="1119" y="913" type="curve"/>
      <point x="1076" y="913" type="line"/>
      <point x="1076" y="1413"/>
      <point x="1135" y="1925"/>
      <point x="1672" y="1925" type="curve" smooth="yes"/>
      <point x="1942" y="1925"/>
      <point x="2213" y="1713"/>
      <point x="2213" y="1389" type="curve" smooth="yes"/>
      <point x="2213" y="1147"/>
      <point x="2050" y="934"/>
      <point x="1771" y="934" type="curve" smooth="yes"/>
      <point x="1513" y="934"/>
      <point x="1324" y="1110"/>
      <point x="1324" y="1364" type="curve" smooth="yes"/>
      <point x="1324" y="1677"/>
      <point x="1638" y="1902"/>
    </contour>
    <contour>
      <point x="54" y="56" type="line"/>
      <point x="1406" y="56" type="line"/>
      <point x="1406" y="0" type="line"/>
      <point x="54" y="0" type="line"/>
    </contour>
    <contour>
      <point x="341" y="1828" type="line"/>
      <point x="54" y="1828" type="line"/>
      <point x="54" y="1884" type="line"/>
      <point x="1119" y="1884" type="line"/>
      <point x="1119" y="0" type="line"/>
      <point x="341" y="0" type="line"/>
    </contour>
  </outline>
</glyph>
<glyph name="s" format="2">
  <advance width="466"/>
  <unicode hex="0073"/>
  <outline>
    <contour>
      <point x="385" y="356" type="line"/>
      <point x="379" y="366"/>
      <point x="331" y="421"/>
      <point x="324" y="427" type="curve"/>
      <point x="398" y="470" type="line"/>
      <point x="408" y="470" type="line"/>
      <point x="408" y="330" type="line"/>
      <point x="395" y="330" type="line"/>
    </contour>
    <contour>
      <point x="405" y="330" type="curve"/>
      <point x="395" y="330" type="line"/>
      <point x="355" y="387"/>
      <point x="303" y="454"/>
      <point x="216" y="454" type="curve" smooth="yes"/>
      <point x="177" y="454"/>
      <point x="133" y="438"/>
      <point x="133" y="398" type="curve" smooth="yes"/>
      <point x="133" y="317"/>
      <point x="443" y="350"/>
      <point x="443" y="152" type="curve" smooth="yes"/>
      <point x="443" y="33"/>
      <point x="339" y="-10"/>
      <point x="252" y="-10" type="curve" smooth="yes"/>
      <point x="148" y="-10"/>
      <point x="83" y="52"/>
      <point x="38" y="160" type="curve"/>
      <point x="49" y="160" type="line"/>
      <point x="98" y="61"/>
      <point x="164" y="5"/>
      <point x="246" y="5" type="curve" smooth="yes"/>
      <point x="303" y="5"/>
      <point x="350" y="24"/>
      <point x="350" y="61" type="curve" smooth="yes"/>
      <point x="350" y="139"/>
      <point x="45" y="109"/>
      <point x="45" y="315" type="curve" smooth="yes"/>
      <point x="45" y="409"/>
      <point x="120" y="469"/>
      <point x="215" y="469" type="curve" smooth="yes"/>
      <point x="313" y="469"/>
      <point x="365" y="396"/>
    </contour>
    <contour>
      <point x="45" y="-10" type="line"/>
      <point x="35" y="-10" type="line"/>
      <point x="35" y="160" type="line"/>
      <point x="49" y="160" type="line"/>
      <point x="56" y="122" type="line"/>
      <point x="63" y="109"/>
      <point x="114" y="49"/>
      <point x="120" y="43" type="curve"/>
    </contour>
  </outline>
</glyph>
<glyph name="t" format="2">
  <advance width="3224"/>
  <unicode hex="0074"/>
  <outline>
    <contour>
      <point x="24" y="3680" type="line"/>
      <point x="2984" y="3680" type="line"/>
      <point x="2984" y="3568" type="line"/>
      <point x="24" y="3568" type="line"/>
    </contour>
    <contour>
      <point x="3224" y="816" type="line"/>
      <point x="3032" y="304"/>
      <point x="2544" y="-56"/>
      <point x="1736" y="-56" type="curve" smooth="yes"/>
      <point x="840" y="-56"/>
      <point x="608" y="288"/>
      <point x="608" y="968" type="curve" smooth="yes"/>
      <point x="608" y="4480" type="line"/>
      <point x="1088" y="4480"/>
      <point x="1728" y="4520"/>
      <point x="2128" y="4720" type="curve"/>
      <point x="2128" y="848" type="line" smooth="yes"/>
      <point x="2128" y="448"/>
      <point x="2216" y="256"/>
      <point x="2432" y="256" type="curve" smooth="yes"/>
      <point x="2656" y="256"/>
      <point x="2968" y="456"/>
      <point x="3128" y="856" type="curve"/>
    </contour>
  </outline>
</glyph>
<glyph name="u" format="2">
  <advance width="5288"/>
  <unicode hex="0075"/>
  <outline>
    <contour>
      <point x="2184" y="3680" type="line"/>
      <point x="2184" y="1160" type="line" smooth="yes"/>
      <point x="2184" y="488"/>
      <point x="2248" y="400"/>
      <point x="2472" y="400" type="curve" smooth="yes"/>
      <point x="2792" y="400"/>
      <point x="3104" y="1104"/>
      <point x="3104" y="1896" type="curve"/>
      <point x="3192" y="1896" type="line"/>
      <point x="3192" y="1080"/>
      <point x="2944" y="-80"/>
      <point x="1800" y="-80" type="curve" smooth="yes"/>
      <point x="944" y="-80"/>
      <point x="664" y="432"/>
      <point x="664" y="1128" type="curve" smooth="yes"/>
      <point x="664" y="3568" type="line"/>
      <point x="104" y="3568" type="line"/>
      <point x="104" y="3680" type="line"/>
    </contour>
    <contour>
      <point x="4624" y="112" type="line"/>
      <point x="5184" y="112" type="line"/>
      <point x="5184" y="0" type="line"/>
      <point x="3104" y="0" type="line"/>
      <point x="3104" y="3568" type="line"/>
      <point x="2624" y="3568" type="line"/>
      <point x="2624" y="3680" type="line"/>
      <point x="4624" y="3680" type="line"/>
    </contour>
  </outline>
</glyph>
<glyph name="w" format="2">
  <advance width="3624"/>
  <unicode hex="0077"/>
  <outline>
    <contour>
      <point x="1458" y="1828" type="line"/>
      <point x="-20" y="1828" type="line"/>
      <point x="-20" y="1884" type="line"/>
      <point x="1458" y="1884" type="line"/>
    </contour>
    <contour>
      <point x="3645" y="1828" type="line"/>
      <point x="2769" y="1828" type="line"/>
      <point x="2769" y="1884" type="line"/>
      <point x="3645" y="1884" type="line"/>
    </contour>
    <contour>
      <point x="1413" y="606" type="line"/>
      <point x="1925" y="1925" type="line"/>
      <point x="2478" y="1925" type="line"/>
      <point x="2830" y="713" type="line"/>
      <point x="3219" y="1884" type="line"/>
      <point x="3291" y="1884" type="line"/>
      <point x="2647" y="-41" type="line"/>
      <point x="2290" y="-41" type="line"/>
      <point x="1779" y="1366" type="line"/>
      <point x="1231" y="-41" type="line"/>
      <point x="872" y="-41" type="line"/>
      <point x="246" y="1884" type="line"/>
      <point x="1081" y="1884" type="line"/>
    </contour>
  </outline>
</glyph>
<glyph name="x" format="2">
  <advance width="2433"/>
  <unicode hex="0078"/>
  <outline>
    <contour>
      <point x="1016" y="57" type="line"/>
      <point x="2413" y="57" type="line"/>
      <point x="2413" y="0" type="line"/>
      <point x="1016" y="0" type="line"/>
    </contour>
    <contour>
      <point x="20" y="57" type="line"/>
      <point x="795" y="57" type="line"/>
      <point x="795" y="0" type="line"/>
      <point x="20" y="0" type="line"/>
    </contour>
    <contour>
      <point x="1397" y="1827" type="line"/>
      <point x="20" y="1827" type="line"/>
      <point x="20" y="1884" type="line"/>
      <point x="1397" y="1884" type="line"/>
    </contour>
    <contour>
      <point x="2372" y="1827" type="line"/>
      <point x="1659" y="1827" type="line"/>
      <point x="1659" y="1884" type="line"/>
      <point x="2372" y="1884" type="line"/>
    </contour>
    <contour>
      <point x="2228" y="0" type="line"/>
      <point x="1327" y="0" type="line"/>
      <point x="246" y="1884" type="line"/>
      <point x="1106" y="1884" type="line"/>
    </contour>
    <contour>
      <point x="340" y="0" type="line"/>
      <point x="262" y="0" type="line"/>
      <point x="2011" y="1884" type="line"/>
      <point x="2089" y="1884" type="line"/>
    </contour>
  </outline>
</glyph>
<glyph name="y" format="2">
  <advance width="5104"/>
  <unicode hex="0079"/>
  <outline>
    <contour>
      <point x="3248" y="3568" type="line"/>
      <point x="-120" y="3568" type="line"/>
      <point x="-120" y="3680" type="line"/>
      <point x="3248" y="3680" type="line"/>
    </contour>
    <contour>
      <point x="5224" y="3568" type="line"/>
      <point x="3664" y="3568" type="line"/>
      <point x="3664" y="3680" type="line"/>
      <point x="5224" y="3680" type="line"/>
    </contour>
    <contour>
      <point x="3520" y="1440" type="line"/>
      <point x="2608" y="-224" type="line"/>
      <point x="472" y="3680" type="line"/>
      <point x="2312" y="3680" type="line"/>
    </contour>
    <contour>
      <point x="2040" y="-1232" type="curve"/>
      <point x="4576" y="3680" type="line"/>
      <point x="4728" y="3680" type="line"/>
      <point x="2072" y="-1456" type="line" smooth="yes"/>
      <point x="1896" y="-1792"/>
      <point x="1616" y="-2008"/>
      <point x="1232" y="-2008" type="curve" smooth="yes"/>
      <point x="792" y="-2008"/>
      <point x="416" y="-1712"/>
      <point x="416" y="-1248" type="curve" smooth="yes"/>
      <point x="416" y="-824"/>
      <point x="760" y="-432"/>
      <point x="1256" y="-432" type="curve" smooth="yes"/>
      <point x="1704" y="-432"/>
      <point x="2040" y="-824"/>
    </contour>
  </outline>
</glyph>
<glyph name="z" format="2">
  <advance width="2074"/>
  <unicode hex="007A"/>
  <outline>
    <contour>
      <point x="878" y="1828" type="line" smooth="yes"/>
      <point x="575" y="1828"/>
      <point x="328" y="1594"/>
      <point x="205" y="1180" type="curve"/>
      <point x="149" y="1180" type="line"/>
      <point x="149" y="1884" type="line"/>
      <point x="1955" y="1884" type="line"/>
      <point x="1955" y="1828" type="line"/>
      <point x="886" y="56" type="line"/>
      <point x="1197" y="56" type="line" smooth="yes"/>
      <point x="1594" y="56"/>
      <point x="1841" y="246"/>
      <point x="1964" y="754" type="curve"/>
      <point x="2021" y="754" type="line"/>
      <point x="2021" y="0" type="line"/>
      <point x="34" y="0" type="line"/>
      <point x="34" y="56" type="line"/>
      <point x="1099" y="1828" type="line"/>
    </contour>
  </outline>
</glyph>
<glyph name="braceleft" format="2">
  <advance width="1604"/>
  <unicode hex="007B"/>
  <outline>
    <contour>
      <point x="1482" y="3194" type="curve"/>
      <point x="1482" y="3139" type="line"/>
      <point x="1228" y="3139"/>
      <point x="1098" y="2908"/>
      <point x="1098" y="2650" type="curve" smooth="yes"/>
      <point x="1098" y="2420"/>
      <point x="1236" y="2216"/>
      <point x="1236" y="1888" type="curve" smooth="yes"/>
      <point x="1236" y="1548"/>
      <point x="1020" y="1365"/>
      <point x="226" y="1283" type="curve"/>
      <point x="226" y="1320" type="line"/>
      <point x="348" y="1360"/>
      <point x="472" y="1454"/>
      <point x="472" y="1622" type="curve" smooth="yes"/>
      <point x="472" y="1880"/>
      <point x="226" y="2064"/>
      <point x="226" y="2544" type="curve" smooth="yes"/>
      <point x="226" y="2990"/>
      <point x="520" y="3194"/>
    </contour>
    <contour>
      <point x="1482" y="-614" type="line"/>
      <point x="520" y="-614"/>
      <point x="226" y="-406"/>
      <point x="226" y="40" type="curve" smooth="yes"/>
      <point x="226" y="520"/>
      <point x="472" y="704"/>
      <point x="472" y="962" type="curve" smooth="yes"/>
      <point x="472" y="1130"/>
      <point x="348" y="1222"/>
      <point x="226" y="1262" type="curve"/>
      <point x="226" y="1300" type="line"/>
      <point x="1020" y="1218"/>
      <point x="1236" y="1036"/>
      <point x="1236" y="696" type="curve" smooth="yes"/>
      <point x="1236" y="368"/>
      <point x="1098" y="164"/>
      <point x="1098" y="-66" type="curve" smooth="yes"/>
      <point x="1098" y="-324"/>
      <point x="1228" y="-558"/>
      <point x="1482" y="-558" type="curve"/>
    </contour>
  </outline>
</glyph>
<glyph name="asciitilde" format="2">
  <advance width="2818"/>
  <unicode hex="007E"/>
  <outline>
    <contour>
      <point x="820" y="1668" type="curve" smooth="yes"/>
      <point x="609" y="1668"/>
      <point x="466" y="1576"/>
      <point x="466" y="1404" type="curve"/>
      <point x="410" y="1404" type="line"/>
      <point x="410" y="1876"/>
      <point x="614" y="2212"/>
      <point x="1020" y="2212" type="curve" smooth="yes"/>
      <point x="1470" y="2212"/>
      <point x="1537" y="1826"/>
      <point x="1957" y="1826" type="curve" smooth="yes"/>
      <point x="2208" y="1826"/>
      <point x="2353" y="1916"/>
      <point x="2353" y="2088" type="curve"/>
      <point x="2408" y="2088" type="line"/>
      <point x="2408" y="1616"/>
      <point x="2204" y="1282"/>
      <point x="1798" y="1282" type="curve" smooth="yes"/>
      <point x="1278" y="1282"/>
      <point x="1269" y="1668"/>
    </contour>
  </outline>
</glyph>
<glyph name="cent" format="2">
  <advance width="4368"/>
  <unicode hex="00A2"/>
  <outline>
    <contour>
      <point x="2512" y="4440" type="line"/>
      <point x="2512" y="-680" type="line"/>
      <point x="2408" y="-680" type="line"/>
      <point x="2408" y="4440" type="line"/>
    </contour>
    <component base="c"/>
  </outline>
</glyph>
<glyph name="sterling" format="2">
  <advance width="2813"/>
  <unicode hex="00A3"/>
  <outline>
    <contour>
      <point x="2712" y="1135" type="line"/>
      <point x="2712" y="131"/>
      <point x="2461" y="-123"/>
      <point x="1892" y="-123" type="curve" smooth="yes"/>
      <point x="1331" y="-123"/>
      <point x="1024" y="123"/>
      <point x="766" y="123" type="curve" smooth="yes"/>
      <point x="598" y="123"/>
      <point x="393" y="41"/>
      <point x="352" y="-82" type="curve"/>
      <point x="319" y="-82" type="line"/>
      <point x="360" y="221"/>
      <point x="856" y="889"/>
      <point x="1319" y="889" type="curve" smooth="yes"/>
      <point x="1647" y="889"/>
      <point x="1827" y="750"/>
      <point x="2056" y="750" type="curve" smooth="yes"/>
      <point x="2343" y="750"/>
      <point x="2654" y="799"/>
      <point x="2654" y="1135" type="curve"/>
    </contour>
    <contour>
      <point x="1905" y="1647" type="line"/>
      <point x="1905" y="1589" type="line"/>
      <point x="61" y="1589" type="line"/>
      <point x="61" y="1647" type="line"/>
    </contour>
    <contour>
      <point x="319" y="2253" type="curve" smooth="yes"/>
      <point x="319" y="2826"/>
      <point x="791" y="3113"/>
      <point x="1573" y="3113" type="curve" smooth="yes"/>
      <point x="2237" y="3113"/>
      <point x="2671" y="2675"/>
      <point x="2671" y="2339" type="curve" smooth="yes"/>
      <point x="2671" y="2048"/>
      <point x="2486" y="1819"/>
      <point x="2220" y="1819" type="curve" smooth="yes"/>
      <point x="1954" y="1819"/>
      <point x="1704" y="2007"/>
      <point x="1704" y="2294" type="curve" smooth="yes"/>
      <point x="1704" y="2560"/>
      <point x="1941" y="2765"/>
      <point x="2183" y="2765" type="curve" smooth="yes"/>
      <point x="2335" y="2765"/>
      <point x="2404" y="2691"/>
      <point x="2437" y="2658" type="curve"/>
      <point x="2310" y="2838"/>
      <point x="2020" y="3015"/>
      <point x="1737" y="3015" type="curve" smooth="yes"/>
      <point x="1454" y="3015"/>
      <point x="1266" y="2884"/>
      <point x="1266" y="2499" type="curve" smooth="yes"/>
      <point x="1266" y="2093"/>
      <point x="1495" y="1986"/>
      <point x="1495" y="1597" type="curve" smooth="yes"/>
      <point x="1495" y="819"/>
      <point x="299" y="840"/>
      <point x="352" y="-82" type="curve"/>
      <point x="295" y="-82" type="line"/>
      <point x="217" y="487"/>
      <point x="651" y="807"/>
      <point x="651" y="1069" type="curve" smooth="yes"/>
      <point x="651" y="1536"/>
      <point x="319" y="1782"/>
    </contour>
  </outline>
</glyph>
<glyph name="section" format="2">
  <advance width="4048"/>
  <unicode hex="00A7"/>
  <outline>
    <contour>
      <point x="1320" y="5272" type="curve" smooth="yes"/>
      <point x="1320" y="4424"/>
      <point x="3664" y="4344"/>
      <point x="3664" y="3120" type="curve" smooth="yes"/>
      <point x="3664" y="2464"/>
      <point x="3192" y="2328"/>
      <point x="2840" y="2120" type="curve"/>
      <point x="2736" y="2120" type="line"/>
      <point x="2832" y="2232"/>
      <point x="3008" y="2288"/>
      <point x="3008" y="2592" type="curve" smooth="yes"/>
      <point x="3008" y="3320"/>
      <point x="576" y="3248"/>
      <point x="576" y="4704" type="curve" smooth="yes"/>
      <point x="576" y="5536"/>
      <point x="1256" y="6080"/>
      <point x="2176" y="6080" type="curve" smooth="yes"/>
      <point x="2800" y="6080"/>
      <point x="3728" y="5880"/>
      <point x="3728" y="5032" type="curve" smooth="yes"/>
      <point x="3728" y="4624"/>
      <point x="3448" y="4296"/>
      <point x="3008" y="4296" type="curve" smooth="yes"/>
      <point x="2608" y="4296"/>
      <point x="2336" y="4616"/>
      <point x="2336" y="4984" type="curve" smooth="yes"/>
      <point x="2336" y="5320"/>
      <point x="2640" y="5640"/>
      <point x="3032" y="5640" type="curve" smooth="yes"/>
      <point x="3240" y="5640"/>
      <point x="3376" y="5544"/>
      <point x="3440" y="5480" type="curve"/>
      <point x="3152" y="5840"/>
      <point x="2648" y="5960"/>
      <point x="2176" y="5960" type="curve" smooth="yes"/>
      <point x="1760" y="5960"/>
      <point x="1320" y="5664"/>
    </contour>
    <contour>
      <point x="3712" y="1296" type="curve" smooth="yes"/>
      <point x="3712" y="464"/>
      <point x="3032" y="-80"/>
      <point x="1952" y="-80" type="curve" smooth="yes"/>
      <point x="1248" y="-80"/>
      <point x="240" y="200"/>
      <point x="240" y="968" type="curve" smooth="yes"/>
      <point x="240" y="1376"/>
      <point x="520" y="1704"/>
      <point x="960" y="1704" type="curve" smooth="yes"/>
      <point x="1360" y="1704"/>
      <point x="1632" y="1384"/>
      <point x="1632" y="1016" type="curve" smooth="yes"/>
      <point x="1632" y="680"/>
      <point x="1344" y="392"/>
      <point x="952" y="392" type="curve" smooth="yes"/>
      <point x="712" y="392"/>
      <point x="576" y="512"/>
      <point x="536" y="576" type="curve"/>
      <point x="792" y="216"/>
      <point x="1368" y="40"/>
      <point x="1952" y="40" type="curve" smooth="yes"/>
      <point x="2616" y="40"/>
      <point x="2968" y="416"/>
      <point x="2968" y="728" type="curve" smooth="yes"/>
      <point x="2968" y="1576"/>
      <point x="464" y="1536"/>
      <point x="464" y="2760" type="curve" smooth="yes"/>
      <point x="464" y="3416"/>
      <point x="936" y="3712"/>
      <point x="1288" y="3920" type="curve"/>
      <point x="1392" y="3920" type="line"/>
      <point x="1304" y="3824"/>
      <point x="1128" y="3720"/>
      <point x="1128" y="3448" type="curve" smooth="yes"/>
      <point x="1128" y="2720"/>
      <point x="3712" y="2752"/>
    </contour>
  </outline>
</glyph>
<glyph name="copyright" format="2">
  <advance width="6960"/>
  <unicode hex="00A9"/>
  <outline>
    <contour>
      <point x="400" y="3000" type="curve" smooth="yes"/>
      <point x="400" y="4704"/>
      <point x="1776" y="6080"/>
      <point x="3480" y="6080" type="curve" smooth="yes"/>
      <point x="5184" y="6080"/>
      <point x="6560" y="4704"/>
      <point x="6560" y="3000" type="curve" smooth="yes"/>
      <point x="6560" y="1296"/>
      <point x="5184" y="-80"/>
      <point x="3480" y="-80" type="curve" smooth="yes"/>
      <point x="1776" y="-80"/>
      <point x="400" y="1296"/>
    </contour>
    <contour>
      <point x="512" y="3000" type="curve" smooth="yes"/>
      <point x="512" y="1360"/>
      <point x="1840" y="32"/>
      <point x="3480" y="32" type="curve" smooth="yes"/>
      <point x="5120" y="32"/>
      <point x="6448" y="1360"/>
      <point x="6448" y="3000" type="curve" smooth="yes"/>
      <point x="6448" y="4640"/>
      <point x="5120" y="5968"/>
      <point x="3480" y="5968" type="curve" smooth="yes"/>
      <point x="1840" y="5968"/>
      <point x="512" y="4640"/>
    </contour>
    <component base="C" xScale="0.6" yScale="0.6" xOffset="1536" yOffset="1200"/>
  </outline>
</glyph>
<glyph name="degree" format="2">
  <advance width="1310"/>
  <unicode hex="00B0"/>
  <outline>
    <contour>
      <point x="164" y="2785" type="curve" smooth="yes"/>
      <point x="164" y="3055"/>
      <point x="385" y="3277"/>
      <point x="655" y="3277" type="curve" smooth="yes"/>
      <point x="925" y="3277"/>
      <point x="1147" y="3055"/>
      <point x="1147" y="2785" type="curve" smooth="yes"/>
      <point x="1147" y="2515"/>
      <point x="925" y="2294"/>
      <point x="655" y="2294" type="curve" smooth="yes"/>
      <point x="385" y="2294"/>
      <point x="164" y="2515"/>
    </contour>
    <contour>
      <point x="340" y="2785" type="curve" smooth="yes"/>
      <point x="340" y="2605"/>
      <point x="475" y="2470"/>
      <point x="655" y="2470" type="curve" smooth="yes"/>
      <point x="835" y="2470"/>
      <point x="971" y="2605"/>
      <point x="971" y="2785" type="curve" smooth="yes"/>
      <point x="971" y="2965"/>
      <point x="835" y="3101"/>
      <point x="655" y="3101" type="curve" smooth="yes"/>
      <point x="475" y="3101"/>
      <point x="340" y="2965"/>
    </contour>
  </outline>
</glyph>
<glyph name="acute" format="2">
  <advance width="425"/>
  <unicode hex="00B4"/>
  <outline>
    <contour>
      <point x="275" y="680" type="curve" smooth="yes"/>
      <point x="60" y="723" type="line"/>
      <point x="57" y="737" type="line"/>
      <point x="265" y="828" type="line" smooth="yes"/>
      <point x="315" y="850"/>
      <point x="370" y="804"/>
      <point x="370" y="755" type="curve" smooth="yes"/>
      <point x="370" y="706"/>
      <point x="324" y="670"/>
    </contour>
  </outline>
</glyph>
<glyph name="mu" format="2">
  <advance width="5088"/>
  <unicode hex="00B5"/>
  <outline>
    <contour>
      <point x="2008" y="-984" type="curve" smooth="yes"/>
      <point x="2272" y="-984"/>
      <point x="2480" y="-1216"/>
      <point x="2480" y="-1520" type="curve" smooth="yes"/>
      <point x="2480" y="-1832"/>
      <point x="2312" y="-2080"/>
      <point x="1728" y="-2080" type="curve" smooth="yes"/>
      <point x="1168" y="-2080"/>
      <point x="688" y="-1688"/>
      <point x="688" y="-968" type="curve" smooth="yes"/>
      <point x="688" y="2568" type="line"/>
      <point x="792" y="2568" type="line"/>
      <point x="792" y="-968" type="line" smooth="yes"/>
      <point x="792" y="-1640"/>
      <point x="1208" y="-1984"/>
      <point x="1800" y="-1984" type="curve"/>
      <point x="1800" y="-1984" type="line"/>
      <point x="1592" y="-1840"/>
      <point x="1528" y="-1640"/>
      <point x="1528" y="-1440" type="curve" smooth="yes"/>
      <point x="1528" y="-1176"/>
      <point x="1744" y="-984"/>
    </contour>
    <component base="u"/>
  </outline>
</glyph>
<glyph name="cedilla" format="2">
  <advance width="2252"/>
  <unicode hex="00B8"/>
  <outline>
    <contour>
      <point x="1184" y="-573" type="curve" smooth="yes"/>
      <point x="1184" y="-356"/>
      <point x="1032" y="-324"/>
      <point x="889" y="-324" type="curve"/>
      <point x="1257" y="168" type="line"/>
      <point x="1335" y="168" type="line"/>
      <point x="1090" y="-160" type="line"/>
      <point x="1536" y="-172"/>
      <point x="1802" y="-263"/>
      <point x="1802" y="-492" type="curve" smooth="yes"/>
      <point x="1802" y="-697"/>
      <point x="1605" y="-901"/>
      <point x="864" y="-901" type="curve"/>
      <point x="864" y="-844" type="line"/>
      <point x="1106" y="-844"/>
      <point x="1184" y="-729"/>
    </contour>
  </outline>
</glyph>
<glyph name="threequarters" format="2">
  <advance width="6088"/>
  <unicode hex="00BE"/>
  <outline>
    <contour>
      <point x="4576" y="5200" type="line"/>
      <point x="4688" y="5200" type="line"/>
      <point x="912" y="-800" type="line"/>
      <point x="800" y="-800" type="line"/>
    </contour>
    <component base="three" xScale="0.6" yScale="0.6" xOffset="40" yOffset="2832"/>
    <component base="four" xScale="0.6" yScale="0.6" xOffset="2640" yOffset="-824"/>
  </outline>
</glyph>
<glyph name="AE" format="2">
  <advance width="4486"/>
  <unicode hex="00C6"/>
  <outline>
    <contour>
      <point x="2127" y="3072" type="line"/>
      <point x="2190" y="3072" type="line"/>
      <point x="449" y="0" type="line"/>
      <point x="379" y="0" type="line"/>
    </contour>
    <contour>
      <point x="62" y="56" type="line"/>
      <point x="962" y="56" type="line"/>
      <point x="962" y="0" type="line"/>
      <point x="62" y="0" type="line"/>
    </contour>
    <contour>
      <point x="1004" y="1031" type="line"/>
      <point x="2192" y="1031" type="line"/>
      <point x="2192" y="976" type="line"/>
      <point x="981" y="976" type="line"/>
    </contour>
    <contour>
      <point x="2150" y="3072" type="line"/>
      <point x="3032" y="3072" type="line"/>
      <point x="3032" y="0" type="line"/>
      <point x="2150" y="0" type="line"/>
    </contour>
    <contour>
      <point x="2150" y="3072" type="line"/>
      <point x="4323" y="3072" type="line"/>
      <point x="4323" y="2232" type="line"/>
      <point x="4268" y="2232" type="line"/>
      <point x="4146" y="2670"/>
      <point x="3756" y="3016"/>
      <point x="3318" y="3016" type="curve" smooth="yes"/>
      <point x="2150" y="3016" type="line"/>
    </contour>
    <contour>
      <point x="4365" y="0" type="line"/>
      <point x="1782" y="0" type="line"/>
      <point x="1782" y="56" type="line"/>
      <point x="3276" y="56" type="line" smooth="yes"/>
      <point x="3796" y="56"/>
      <point x="4187" y="402"/>
      <point x="4309" y="922" type="curve"/>
      <point x="4365" y="922" type="line"/>
    </contour>
    <contour>
      <point x="3695" y="1016" type="line"/>
      <point x="3573" y="1290"/>
      <point x="3306" y="1562"/>
      <point x="3072" y="1562" type="curve" smooth="yes"/>
      <point x="2826" y="1562" type="line"/>
      <point x="2826" y="1617" type="line"/>
      <point x="3072" y="1617" type="line" smooth="yes"/>
      <point x="3306" y="1617"/>
      <point x="3573" y="1868"/>
      <point x="3695" y="2142" type="curve"/>
      <point x="3750" y="2142" type="line"/>
      <point x="3750" y="1016" type="line"/>
    </contour>
  </outline>
</glyph>
<glyph name="Thorn" format="2">
  <advance width="3010"/>
  <unicode hex="00DE"/>
  <outline>
    <contour>
      <point x="430" y="3072" type="line"/>
      <point x="1311" y="3072" type="line"/>
      <point x="1311" y="0" type="line"/>
      <point x="430" y="0" type="line"/>
    </contour>
    <contour>
      <point x="61" y="57" type="line"/>
      <point x="1679" y="57" type="line"/>
      <point x="1679" y="0" type="line"/>
      <point x="61" y="0" type="line"/>
    </contour>
    <contour>
      <point x="61" y="3072" type="line"/>
      <point x="1679" y="3072" type="line"/>
      <point x="1679" y="3015" type="line"/>
      <point x="61" y="3015" type="line"/>
    </contour>
    <contour>
      <point x="1761" y="737" type="curve" smooth="yes"/>
      <point x="1229" y="737" type="line"/>
      <point x="1229" y="795" type="line"/>
      <point x="1475" y="795" type="line" smooth="yes"/>
      <point x="1868" y="795"/>
      <point x="1925" y="1232"/>
      <point x="1925" y="1597" type="curve" smooth="yes"/>
      <point x="1925" y="1962"/>
      <point x="1868" y="2400"/>
      <point x="1475" y="2400" type="curve" smooth="yes"/>
      <point x="1229" y="2400" type="line"/>
      <point x="1229" y="2458" type="line"/>
      <point x="1761" y="2458" type="line" smooth="yes"/>
      <point x="2502" y="2458"/>
      <point x="2867" y="2129"/>
      <point x="2867" y="1597" type="curve" smooth="yes"/>
      <point x="2867" y="1065"/>
      <point x="2502" y="737"/>
    </contour>
  </outline>
</glyph>
<glyph name="germandbls" format="2">
  <advance width="861"/>
  <unicode hex="00DF"/>
  <outline>
    <contour>
      <point x="463" y="402" type="curve"/>
      <point x="463" y="412" type="line"/>
      <point x="552" y="412"/>
      <point x="570" y="507"/>
      <point x="570" y="571" type="curve" smooth="yes"/>
      <point x="570" y="643"/>
      <point x="547" y="748"/>
      <point x="453" y="748" type="curve" smooth="yes"/>
      <point x="339" y="748"/>
      <point x="315" y="623"/>
      <point x="315" y="481" type="curve" smooth="yes"/>
      <point x="315" y="0" type="line"/>
      <point x="105" y="0" type="line"/>
      <point x="105" y="491" type="line" smooth="yes"/>
      <point x="105" y="684"/>
      <point x="300" y="760"/>
      <point x="463" y="760" type="curve" smooth="yes"/>
      <point x="606" y="760"/>
      <point x="791" y="704"/>
      <point x="791" y="581" type="curve" smooth="yes"/>
      <point x="791" y="461"/>
      <point x="664" y="402"/>
    </contour>
    <contour>
      <point x="15" y="14" type="line"/>
      <point x="405" y="14" type="line"/>
      <point x="405" y="0" type="line"/>
      <point x="15" y="0" type="line"/>
    </contour>
    <contour>
      <point x="821" y="190" type="curve" smooth="yes"/>
      <point x="821" y="50"/>
      <point x="682" y="-10"/>
      <point x="541" y="-10" type="curve" smooth="yes"/>
      <point x="430" y="-10"/>
      <point x="353" y="64"/>
      <point x="353" y="176" type="curve" smooth="yes"/>
      <point x="353" y="247"/>
      <point x="410" y="281"/>
      <point x="465" y="281" type="curve" smooth="yes"/>
      <point x="515" y="281"/>
      <point x="569" y="251"/>
      <point x="569" y="185" type="curve" smooth="yes"/>
      <point x="569" y="123"/>
      <point x="511" y="90"/>
      <point x="462" y="90" type="curve" smooth="yes"/>
      <point x="437" y="90"/>
      <point x="393" y="103"/>
      <point x="382" y="127" type="curve"/>
      <point x="391" y="59"/>
      <point x="460" y="9"/>
      <point x="516" y="9" type="curve" smooth="yes"/>
      <point x="585" y="9"/>
      <point x="600" y="96"/>
      <point x="600" y="160" type="curve" smooth="yes"/>
      <point x="600" y="254"/>
      <point x="592" y="399"/>
      <point x="463" y="399" type="curve"/>
      <point x="463" y="409" type="line"/>
      <point x="704" y="409"/>
      <point x="821" y="320"/>
    </contour>
  </outline>
</glyph>
<glyph name="ae" format="2">
  <advance width="7224"/>
  <unicode hex="00E6"/>
  <outline>
    <contour>
      <point x="560" y="2848" type="curve" smooth="yes"/>
      <point x="560" y="3384"/>
      <point x="1256" y="3744"/>
      <point x="2144" y="3744" type="curve" smooth="yes"/>
      <point x="3184" y="3744"/>
      <point x="3968" y="3248"/>
      <point x="3968" y="2440" type="curve"/>
      <point x="4008" y="1448" type="line"/>
      <point x="4008" y="456"/>
      <point x="2888" y="-80"/>
      <point x="1920" y="-80" type="curve" smooth="yes"/>
      <point x="808" y="-80"/>
      <point x="280" y="312"/>
      <point x="280" y="904" type="curve" smooth="yes"/>
      <point x="280" y="1576"/>
      <point x="896" y="2088"/>
      <point x="2032" y="2088" type="curve" smooth="yes"/>
      <point x="3824" y="2088" type="line"/>
      <point x="3824" y="1976" type="line"/>
      <point x="2592" y="1976" type="line" smooth="yes"/>
      <point x="2224" y="1976"/>
      <point x="1896" y="1560"/>
      <point x="1896" y="904" type="curve" smooth="yes"/>
      <point x="1896" y="368"/>
      <point x="2048" y="64"/>
      <point x="2248" y="64" type="curve" smooth="yes"/>
      <point x="2464" y="64"/>
      <point x="2688" y="400"/>
      <point x="2688" y="1048" type="curve" smooth="yes"/>
      <point x="2688" y="2440" type="line" smooth="yes"/>
      <point x="2688" y="2976"/>
      <point x="2520" y="3624"/>
      <point x="1880" y="3624" type="curve" smooth="yes"/>
      <point x="1640" y="3624"/>
      <point x="1392" y="3552"/>
      <point x="1256" y="3440" type="curve"/>
      <point x="1704" y="3584"/>
      <point x="2248" y="3360"/>
      <point x="2248" y="2864" type="curve" smooth="yes"/>
      <point x="2248" y="2464"/>
      <point x="1816" y="2168"/>
      <point x="1376" y="2168" type="curve" smooth="yes"/>
      <point x="896" y="2168"/>
      <point x="560" y="2480"/>
    </contour>
    <contour>
      <point x="5488" y="2136" type="line"/>
      <point x="5480" y="2872"/>
      <point x="5472" y="3648"/>
      <point x="5160" y="3648" type="curve" smooth="yes"/>
      <point x="4848" y="3648"/>
      <point x="4760" y="2912"/>
      <point x="4760" y="2000" type="curve" smooth="yes"/>
      <point x="4760" y="1088"/>
      <point x="4824" y="104"/>
      <point x="5504" y="104" type="curve" smooth="yes"/>
      <point x="6184" y="104"/>
      <point x="6712" y="520"/>
      <point x="6912" y="1144" type="curve"/>
      <point x="7024" y="1144" type="line"/>
      <point x="6816" y="448"/>
      <point x="6232" y="-80"/>
      <point x="5184" y="-80" type="curve" smooth="yes"/>
      <point x="4216" y="-80"/>
      <point x="3440" y="560"/>
      <point x="3440" y="1840" type="curve" smooth="yes"/>
      <point x="3440" y="3120"/>
      <point x="4192" y="3760"/>
      <point x="5160" y="3760" type="curve" smooth="yes"/>
      <point x="6352" y="3760"/>
      <point x="7016" y="2904"/>
      <point x="7016" y="2032" type="curve"/>
      <point x="4112" y="2032" type="line"/>
      <point x="4112" y="2136" type="line"/>
    </contour>
  </outline>
</glyph>
<glyph name="eth" format="2">
  <advance width="2702"/>
  <unicode hex="00F0"/>
  <outline>
    <contour>
      <point x="614" y="2580" type="line"/>
      <point x="2540" y="2580" type="line"/>
      <point x="2540" y="2525" type="line"/>
      <point x="614" y="2525" type="line"/>
    </contour>
    <contour>
      <point x="2498" y="1270" type="curve" smooth="yes"/>
      <point x="2498" y="410"/>
      <point x="1994" y="-40"/>
      <point x="1294" y="-40" type="curve" smooth="yes"/>
      <point x="594" y="-40"/>
      <point x="122" y="410"/>
      <point x="122" y="1024" type="curve" smooth="yes"/>
      <point x="122" y="1720"/>
      <point x="646" y="2028"/>
      <point x="1142" y="2028" type="curve" smooth="yes"/>
      <point x="1515" y="2028"/>
      <point x="1604" y="1666"/>
      <point x="1604" y="1146" type="curve"/>
      <point x="1556" y="1146" type="line"/>
      <point x="1556" y="1760"/>
      <point x="1424" y="1920"/>
      <point x="1288" y="1920" type="curve" smooth="yes"/>
      <point x="1128" y="1920"/>
      <point x="1064" y="1778"/>
      <point x="1064" y="1024" type="curve" smooth="yes"/>
      <point x="1064" y="352"/>
      <point x="1082" y="15"/>
      <point x="1282" y="15" type="curve" smooth="yes"/>
      <point x="1482" y="15"/>
      <point x="1556" y="392"/>
      <point x="1556" y="1146" type="curve"/>
      <point x="1566" y="1407" type="line"/>
      <point x="1566" y="2111"/>
      <point x="1184" y="3061"/>
      <point x="430" y="3061" type="curve"/>
      <point x="430" y="3112" type="line"/>
      <point x="1626" y="3112"/>
      <point x="2498" y="2340"/>
    </contour>
  </outline>
</glyph>
<glyph name="thorn" format="2">
  <advance width="2756"/>
  <unicode hex="00FE"/>
  <outline>
    <contour>
      <point x="1078" y="942" type="curve" smooth="yes"/>
      <point x="1078" y="1564"/>
      <point x="1330" y="1922"/>
      <point x="1766" y="1922" type="curve" smooth="yes"/>
      <point x="2212" y="1922"/>
      <point x="2634" y="1556"/>
      <point x="2634" y="942" type="curve" smooth="yes"/>
      <point x="2634" y="328"/>
      <point x="2212" y="-40"/>
      <point x="1766" y="-40" type="curve" smooth="yes"/>
      <point x="1333" y="-40"/>
      <point x="1078" y="320"/>
    </contour>
    <contour>
      <point x="1126" y="942" type="curve" smooth="yes"/>
      <point x="1126" y="360"/>
      <point x="1376" y="80"/>
      <point x="1565" y="80" type="curve" smooth="yes"/>
      <point x="1705" y="80"/>
      <point x="1754" y="322"/>
      <point x="1754" y="942" type="curve" smooth="yes"/>
      <point x="1754" y="1562"/>
      <point x="1705" y="1800"/>
      <point x="1565" y="1800" type="curve" smooth="yes"/>
      <point x="1376" y="1800"/>
      <point x="1126" y="1521"/>
    </contour>
    <contour>
      <point x="62" y="-968" type="line"/>
      <point x="1414" y="-968" type="line"/>
      <point x="1414" y="-1024" type="line"/>
      <point x="62" y="-1024" type="line"/>
    </contour>
    <contour>
      <point x="348" y="3016" type="line"/>
      <point x="62" y="3016" type="line"/>
      <point x="62" y="3072" type="line"/>
      <point x="1126" y="3072" type="line"/>
      <point x="1126" y="-1024" type="line"/>
      <point x="348" y="-1024" type="line"/>
    </contour>
  </outline>
</glyph>
<glyph name="kgreenlandic" format="2">
  <advance width="2850"/>
  <unicode hex="0138"/>
  <outline>
    <contour>
      <point x="2674" y="0" type="line"/>
      <point x="1720" y="0" type="line"/>
      <point x="1012" y="1110" type="line"/>
      <point x="2208" y="1884" type="line"/>
      <point x="2288" y="1884" type="line"/>
      <point x="1639" y="1456" type="line"/>
    </contour>
    <contour>
      <point x="1490" y="56" type="line"/>
      <point x="2830" y="56" type="line"/>
      <point x="2830" y="0" type="line"/>
      <point x="1490" y="0" type="line"/>
    </contour>
    <contour>
      <point x="2568" y="1828" type="line"/>
      <point x="1654" y="1828" type="line"/>
      <point x="1654" y="1884" type="line"/>
      <point x="2568" y="1884" type="line"/>
    </contour>
    <contour>
      <point x="62" y="56" type="line"/>
      <point x="1372" y="56" type="line"/>
      <point x="1372" y="0" type="line"/>
      <point x="62" y="0" type="line"/>
    </contour>
    <contour>
      <point x="430" y="1828" type="line"/>
      <point x="62" y="1828" type="line"/>
      <point x="62" y="1884" type="line"/>
      <point x="1208" y="1884" type="line"/>
      <point x="1208" y="0" type="line"/>
      <point x="430" y="0" type="line"/>
    </contour>
  </outline>
</glyph>
<glyph name="lslash" format="2">
  <advance width="3168"/>
  <unicode hex="0142"/>
  <outline>
    <contour>
      <point x="104" y="2880" type="line"/>
      <point x="3184" y="4640" type="line"/>
      <point x="3184" y="4504" type="line"/>
      <point x="104" y="2744" type="line"/>
    </contour>
    <component base="l"/>
  </outline>
</glyph>
<glyph name="uni0237" format="2">
  <advance width="2936"/>
  <unicode hex="0237"/>
  <outline>
    <contour>
      <point x="2360" y="3680" type="line"/>
      <point x="2360" y="-96" type="line" smooth="yes"/>
      <point x="2360" y="-1144"/>
      <point x="1344" y="-2080"/>
      <point x="144" y="-2080" type="curve" smooth="yes"/>
      <point x="-664" y="-2080"/>
      <point x="-1320" y="-1680"/>
      <point x="-1320" y="-1072" type="curve" smooth="yes"/>
      <point x="-1320" y="-584"/>
      <point x="-936" y="-232"/>
      <point x="-464" y="-232" type="curve" smooth="yes"/>
      <point x="-24" y="-232"/>
      <point x="384" y="-504"/>
      <point x="384" y="-984" type="curve" smooth="yes"/>
      <point x="384" y="-1448"/>
      <point x="72" y="-1752"/>
      <point x="-504" y="-1752" type="curve" smooth="yes"/>
      <point x="-696" y="-1752"/>
      <point x="-816" y="-1648"/>
      <point x="-832" y="-1536" type="curve"/>
      <point x="-760" y="-1728"/>
      <point x="-456" y="-1944"/>
      <point x="8" y="-1944" type="curve" smooth="yes"/>
      <point x="968" y="-1944"/>
      <point x="824" y="-848"/>
      <point x="824" y="168" type="curve" smooth="yes"/>
      <point x="840" y="3568" type="line"/>
      <point x="120" y="3568" type="line"/>
      <point x="120" y="3680" type="line"/>
    </contour>
  </outline>
</glyph>
<glyph name="circumflex" format="2">
  <advance width="465"/>
  <unicode hex="02C6"/>
  <outline>
    <contour>
      <point x="232" y="675" type="line"/>
      <point x="57" y="603" type="line"/>
      <point x="50" y="610" type="line"/>
      <point x="180" y="770" type="line"/>
      <point x="285" y="770" type="line"/>
      <point x="415" y="610" type="line"/>
      <point x="408" y="603" type="line"/>
    </contour>
  </outline>
</glyph>
<glyph name="ring" format="2">
  <advance width="1310"/>
  <unicode hex="02DA"/>
  <outline>
    <contour>
      <point x="205" y="2785" type="curve" smooth="yes"/>
      <point x="205" y="2994"/>
      <point x="364" y="3154"/>
      <point x="655" y="3154" type="curve" smooth="yes"/>
      <point x="946" y="3154"/>
      <point x="1106" y="2994"/>
      <point x="1106" y="2785" type="curve" smooth="yes"/>
      <point x="1106" y="2576"/>
      <point x="946" y="2417"/>
      <point x="655" y="2417" type="curve" smooth="yes"/>
      <point x="364" y="2417"/>
      <point x="205" y="2576"/>
    </contour>
    <contour>
      <point x="553" y="2785" type="curve" smooth="yes"/>
      <point x="553" y="2556"/>
      <point x="585" y="2474"/>
      <point x="655" y="2474" type="curve" smooth="yes"/>
      <point x="725" y="2474"/>
      <point x="758" y="2556"/>
      <point x="758" y="2785" type="curve" smooth="yes"/>
      <point x="758" y="3014"/>
      <point x="725" y="3097"/>
      <point x="655" y="3097" type="curve" smooth="yes"/>
      <point x="585" y="3097"/>
      <point x="553" y="3014"/>
    </contour>
  </outline>
</glyph>
<glyph name="ogonek" format="2">
  <advance width="2252"/>
  <unicode hex="02DB"/>
  <outline>
    <contour>
      <point x="1692" y="-545" type="line"/>
      <point x="1631" y="-660"/>
      <point x="1553" y="-844"/>
      <point x="1139" y="-844" type="curve" smooth="yes"/>
      <point x="807" y="-844"/>
      <point x="573" y="-738"/>
      <point x="573" y="-492" type="curve" smooth="yes"/>
      <point x="573" y="-164"/>
      <point x="1057" y="74"/>
      <point x="1430" y="176" type="curve"/>
      <point x="1442" y="143" type="line"/>
      <point x="1397" y="114"/>
      <point x="1282" y="-50"/>
      <point x="1282" y="-324" type="curve" smooth="yes"/>
      <point x="1282" y="-598"/>
      <point x="1356" y="-696"/>
      <point x="1454" y="-696" type="curve" smooth="yes"/>
      <point x="1540" y="-696"/>
      <point x="1598" y="-622"/>
      <point x="1647" y="-524" type="curve"/>
    </contour>
  </outline>
</glyph>
<glyph name="pi" format="2">
  <advance width="681"/>
  <unicode hex="03C0"/>
  <outline>
    <contour>
      <point x="646" y="103" type="line"/>
      <point x="623" y="33"/>
      <point x="581" y="-10"/>
      <point x="488" y="-10" type="curve" smooth="yes"/>
      <point x="401" y="-10"/>
      <point x="346" y="24"/>
      <point x="346" y="93" type="curve" smooth="yes"/>
      <point x="346" y="420" type="line"/>
      <point x="536" y="420" type="line"/>
      <point x="536" y="84" type="line" smooth="yes"/>
      <point x="536" y="64"/>
      <point x="546" y="45"/>
      <point x="574" y="45" type="curve" smooth="yes"/>
      <point x="594" y="45"/>
      <point x="617" y="67"/>
      <point x="636" y="109" type="curve"/>
    </contour>
    <contour>
      <point x="144" y="-10" type="curve" smooth="yes"/>
      <point x="83" y="-10"/>
      <point x="35" y="23"/>
      <point x="35" y="78" type="curve" smooth="yes"/>
      <point x="35" y="196"/>
      <point x="237" y="132"/>
      <point x="237" y="279" type="curve" smooth="yes"/>
      <point x="237" y="450" type="line"/>
      <point x="293" y="450" type="line"/>
      <point x="293" y="243" type="line" smooth="yes"/>
      <point x="293" y="85"/>
      <point x="242" y="-10"/>
    </contour>
    <contour>
      <point x="626" y="460" type="line"/>
      <point x="626" y="270" type="line"/>
      <point x="55" y="270" type="line"/>
      <point x="55" y="195" type="line"/>
      <point x="41" y="195" type="line"/>
      <point x="41" y="460" type="line"/>
    </contour>
  </outline>
</glyph>
<glyph name="uni1E9E" format="2">
  <advance width="7848"/>
  <unicode hex="1E9E"/>
  <outline>
    <contour>
      <point x="120" y="112" type="line"/>
      <point x="3320" y="112" type="line"/>
      <point x="3320" y="0" type="line"/>
      <point x="120" y="0" type="line"/>
    </contour>
    <contour>
      <point x="5576" y="3024" type="line"/>
      <point x="5376" y="3056"/>
      <point x="4144" y="3320"/>
      <point x="3944" y="3320" type="curve"/>
      <point x="5880" y="5760" type="line"/>
      <point x="5656" y="5840"/>
      <point x="5256" y="5944"/>
      <point x="4744" y="5944" type="curve" smooth="yes"/>
      <point x="3032" y="5944"/>
      <point x="2600" y="5064"/>
      <point x="2600" y="3448" type="curve" smooth="yes"/>
      <point x="2600" y="0" type="line"/>
      <point x="840" y="0" type="line"/>
      <point x="840" y="3528" type="line" smooth="yes"/>
      <point x="840" y="5312"/>
      <point x="2560" y="6080"/>
      <point x="4744" y="6080" type="curve" smooth="yes"/>
      <point x="5968" y="6080"/>
      <point x="6968" y="5552"/>
      <point x="7288" y="5208" type="curve"/>
    </contour>
    <contour>
      <point x="3344" y="1000" type="curve"/>
      <point x="3488" y="584"/>
      <point x="4072" y="88"/>
      <point x="4808" y="88" type="curve" smooth="yes"/>
      <point x="5560" y="88"/>
      <point x="5760" y="688"/>
      <point x="5760" y="1680" type="curve" smooth="yes"/>
      <point x="5760" y="2512"/>
      <point x="5296" y="3216"/>
      <point x="3944" y="3216" type="curve"/>
      <point x="3944" y="3320" type="line"/>
      <point x="6512" y="3320"/>
      <point x="7528" y="2760"/>
      <point x="7528" y="1720" type="curve" smooth="yes"/>
      <point x="7528" y="600"/>
      <point x="6416" y="-80"/>
      <point x="5128" y="-80" type="curve" smooth="yes"/>
      <point x="3752" y="-80"/>
      <point x="3080" y="752"/>
      <point x="3080" y="1488" type="curve" smooth="yes"/>
      <point x="3080" y="2056"/>
      <point x="3480" y="2448"/>
      <point x="4000" y="2448" type="curve" smooth="yes"/>
      <point x="4480" y="2448"/>
      <point x="4832" y="2096"/>
      <point x="4832" y="1568" type="curve" smooth="yes"/>
      <point x="4832" y="1072"/>
      <point x="4408" y="720"/>
      <point x="3936" y="720" type="curve" smooth="yes"/>
      <point x="3632" y="720"/>
      <point x="3408" y="896"/>
    </contour>
  </outline>
</glyph>
<glyph name="uni2031" format="2">
  <advance width="8436"/>
  <unicode hex="2031"/>
  <outline>
    <contour>
      <point x="7148" y="860" type="curve" smooth="yes"/>
      <point x="7148" y="183"/>
      <point x="7214" y="-8"/>
      <point x="7312" y="-8" type="curve" smooth="yes"/>
      <point x="7410" y="-8"/>
      <point x="7476" y="183"/>
      <point x="7476" y="860" type="curve" smooth="yes"/>
      <point x="7476" y="1537"/>
      <point x="7410" y="1729"/>
      <point x="7312" y="1729" type="curve" smooth="yes"/>
      <point x="7214" y="1729"/>
      <point x="7148" y="1537"/>
    </contour>
    <contour>
      <point x="6328" y="860" type="curve" smooth="yes"/>
      <point x="6328" y="1446"/>
      <point x="6850" y="1762"/>
      <point x="7312" y="1762" type="curve" smooth="yes"/>
      <point x="7774" y="1762"/>
      <point x="8294" y="1446"/>
      <point x="8294" y="860" type="curve" smooth="yes"/>
      <point x="8294" y="274"/>
      <point x="7692" y="-40"/>
      <point x="7312" y="-40" type="curve" smooth="yes"/>
      <point x="6850" y="-40"/>
      <point x="6328" y="274"/>
    </contour>
    <contour>
      <point x="5058" y="860" type="curve" smooth="yes"/>
      <point x="5058" y="183"/>
      <point x="5124" y="-8"/>
      <point x="5222" y="-8" type="curve" smooth="yes"/>
      <point x="5320" y="-8"/>
      <point x="5386" y="183"/>
      <point x="5386" y="860" type="curve" smooth="yes"/>
      <point x="5386" y="1537"/>
      <point x="5320" y="1729"/>
      <point x="5222" y="1729" type="curve" smooth="yes"/>
      <point x="5124" y="1729"/>
      <point x="5058" y="1537"/>
    </contour>
    <contour>
      <point x="4240" y="860" type="curve" smooth="yes"/>
      <point x="4240" y="1446"/>
      <point x="4760" y="1762"/>
      <point x="5222" y="1762" type="curve" smooth="yes"/>
      <point x="5684" y="1762"/>
      <point x="6206" y="1446"/>
      <point x="6206" y="860" type="curve" smooth="yes"/>
      <point x="6206" y="274"/>
      <point x="5602" y="-40"/>
      <point x="5222" y="-40" type="curve" smooth="yes"/>
      <point x="4760" y="-40"/>
      <point x="4240" y="274"/>
    </contour>
    <contour>
      <point x="2970" y="860" type="curve" smooth="yes"/>
      <point x="2970" y="183"/>
      <point x="3036" y="-8"/>
      <point x="3134" y="-8" type="curve" smooth="yes"/>
      <point x="3232" y="-8"/>
      <point x="3298" y="183"/>
      <point x="3298" y="860" type="curve" smooth="yes"/>
      <point x="3298" y="1537"/>
      <point x="3232" y="1729"/>
      <point x="3134" y="1729" type="curve" smooth="yes"/>
      <point x="3036" y="1729"/>
      <point x="2970" y="1537"/>
    </contour>
    <contour>
      <point x="2150" y="860" type="curve" smooth="yes"/>
      <point x="2150" y="1446"/>
      <point x="2672" y="1762"/>
      <point x="3134" y="1762" type="curve" smooth="yes"/>
      <point x="3596" y="1762"/>
      <point x="4116" y="1446"/>
      <point x="4116" y="860" type="curve" smooth="yes"/>
      <point x="4116" y="274"/>
      <point x="3514" y="-40"/>
      <point x="3134" y="-40" type="curve" smooth="yes"/>
      <point x="2672" y="-40"/>
      <point x="2150" y="274"/>
    </contour>
    <contour>
      <point x="3176" y="3072" type="line"/>
      <point x="3216" y="3072" type="line"/>
      <point x="1084" y="0" type="line"/>
      <point x="1044" y="0" type="line"/>
    </contour>
    <contour>
      <point x="962" y="2212" type="curve" smooth="yes"/>
      <point x="962" y="1535"/>
      <point x="1028" y="1343"/>
      <point x="1126" y="1343" type="curve" smooth="yes"/>
      <point x="1224" y="1343"/>
      <point x="1290" y="1535"/>
      <point x="1290" y="2212" type="curve" smooth="yes"/>
      <point x="1290" y="2889"/>
      <point x="1224" y="3080"/>
      <point x="1126" y="3080" type="curve" smooth="yes"/>
      <point x="1028" y="3080"/>
      <point x="962" y="2889"/>
    </contour>
    <contour>
      <point x="144" y="2212" type="curve" smooth="yes"/>
      <point x="144" y="2798"/>
      <point x="664" y="3112"/>
      <point x="1126" y="3112" type="curve" smooth="yes"/>
      <point x="1588" y="3112"/>
      <point x="2110" y="2798"/>
      <point x="2110" y="2212" type="curve" smooth="yes"/>
      <point x="2110" y="1626"/>
      <point x="1506" y="1310"/>
      <point x="1126" y="1310" type="curve" smooth="yes"/>
      <point x="664" y="1310"/>
      <point x="144" y="1626"/>
    </contour>
  </outline>
</glyph>
<glyph name="uni203D" format="2">
  <advance width="720"/>
  <unicode hex="203D"/>
  <outline>
    <contour>
      <point x="446" y="554" type="curve" smooth="yes"/>
      <point x="435" y="458"/>
      <point x="354" y="348"/>
      <point x="354" y="278" type="curve"/>
      <point x="340" y="278" type="line"/>
      <point x="340" y="348"/>
      <point x="279" y="458"/>
      <point x="268" y="554" type="curve" smooth="yes"/>
      <point x="267" y="561"/>
      <point x="267" y="567"/>
      <point x="267" y="573" type="curve" smooth="yes"/>
      <point x="267" y="601"/>
      <point x="290" y="648"/>
      <point x="357" y="648" type="curve" smooth="yes"/>
      <point x="424" y="648"/>
      <point x="447" y="601"/>
      <point x="447" y="573" type="curve" smooth="yes"/>
      <point x="447" y="567"/>
      <point x="447" y="561"/>
    </contour>
    <contour>
      <point x="60" y="571" type="curve" smooth="yes"/>
      <point x="60" y="663"/>
      <point x="164" y="760"/>
      <point x="356" y="760" type="curve" smooth="yes"/>
      <point x="507" y="760"/>
      <point x="670" y="690"/>
      <point x="670" y="550" type="curve" smooth="yes"/>
      <point x="670" y="410"/>
      <point x="488" y="335"/>
      <point x="347" y="335" type="curve"/>
      <point x="347" y="345" type="line"/>
      <point x="424" y="350"/>
      <point x="499" y="460"/>
      <point x="499" y="560" type="curve" smooth="yes"/>
      <point x="499" y="654"/>
      <point x="442" y="737"/>
      <point x="333" y="737" type="curve" smooth="yes"/>
      <point x="192" y="737"/>
      <point x="114" y="674"/>
      <point x="96" y="628" type="curve"/>
      <point x="101" y="640"/>
      <point x="129" y="660"/>
      <point x="167" y="660" type="curve" smooth="yes"/>
      <point x="226" y="660"/>
      <point x="254" y="600"/>
      <point x="254" y="565" type="curve" smooth="yes"/>
      <point x="254" y="495"/>
      <point x="202" y="459"/>
      <point x="157" y="459" type="curve" smooth="yes"/>
      <point x="107" y="459"/>
      <point x="60" y="500"/>
    </contour>
    <component base="period" xOffset="179"/>
  </outline>
</glyph>
<glyph name="Euro" format="2">
  <advance width="5920"/>
  <unicode hex="20AC"/>
  <outline>
    <contour>
      <point x="5192" y="5408" type="curve"/>
      <point x="5000" y="5648"/>
      <point x="4512" y="5928"/>
      <point x="3912" y="5928" type="curve" smooth="yes"/>
      <point x="2960" y="5928"/>
      <point x="2720" y="4712"/>
      <point x="2720" y="3000" type="curve" smooth="yes"/>
      <point x="2720" y="1128"/>
      <point x="3008" y="144"/>
      <point x="3800" y="144" type="curve" smooth="yes"/>
      <point x="4560" y="144"/>
      <point x="5144" y="720"/>
      <point x="5344" y="1424" type="curve"/>
      <point x="5464" y="1424" type="line"/>
      <point x="5256" y="648"/>
      <point x="4592" y="-80"/>
      <point x="3464" y="-80" type="curve" smooth="yes"/>
      <point x="1856" y="-80"/>
      <point x="760" y="1160"/>
      <point x="760" y="3000" type="curve" smooth="yes"/>
      <point x="760" y="4680"/>
      <point x="1824" y="6080"/>
      <point x="3672" y="6080" type="curve" smooth="yes"/>
      <point x="4888" y="6080"/>
      <point x="5640" y="5424"/>
      <point x="5640" y="4768" type="curve" smooth="yes"/>
      <point x="5640" y="4200"/>
      <point x="5264" y="3872"/>
      <point x="4784" y="3872" type="curve" smooth="yes"/>
      <point x="4344" y="3872"/>
      <point x="3928" y="4160"/>
      <point x="3928" y="4720" type="curve" smooth="yes"/>
      <point x="3928" y="5240"/>
      <point x="4312" y="5560"/>
      <point x="4784" y="5560" type="curve" smooth="yes"/>
      <point x="4952" y="5560"/>
      <point x="5120" y="5480"/>
    </contour>
    <component base="equal" xOffset="-240" yOffset="-560"/>
  </outline>
</glyph>
<glyph name="uniFB00" format="2">
  <advance width="3138"/>
  <unicode hex="FB00"/>
  <outline>
    <contour>
      <point x="34" y="56" type="line"/>
      <point x="3024" y="56" type="line"/>
      <point x="3024" y="0" type="line"/>
      <point x="34" y="0" type="line"/>
    </contour>
    <contour>
      <point x="34" y="1884" type="line"/>
      <point x="3106" y="1884" type="line"/>
      <point x="3106" y="1828" type="line"/>
      <point x="34" y="1828" type="line"/>
    </contour>
    <contour>
      <point x="2071" y="2649" type="curve"/>
      <point x="2018" y="2746"/>
      <point x="1840" y="2842"/>
      <point x="1660" y="2842" type="curve" smooth="yes"/>
      <point x="1332" y="2842"/>
      <point x="1140" y="2527"/>
      <point x="1140" y="2007" type="curve" smooth="yes"/>
      <point x="1140" y="0" type="line"/>
      <point x="403" y="0" type="line"/>
      <point x="403" y="1892" type="line" smooth="yes"/>
      <point x="403" y="2510"/>
      <point x="923" y="2908"/>
      <point x="1619" y="2908" type="curve" smooth="yes"/>
      <point x="1992" y="2908"/>
      <point x="2287" y="2654"/>
      <point x="2287" y="2380" type="curve" smooth="yes"/>
      <point x="2287" y="2130"/>
      <point x="2135" y="1962"/>
      <point x="1889" y="1962" type="curve" smooth="yes"/>
      <point x="1664" y="1962"/>
      <point x="1455" y="2101"/>
      <point x="1455" y="2347" type="curve" smooth="yes"/>
      <point x="1455" y="2593"/>
      <point x="1615" y="2753"/>
      <point x="1836" y="2753" type="curve" smooth="yes"/>
      <point x="1977" y="2753"/>
      <point x="2071" y="2649"/>
    </contour>
    <contour>
      <point x="3418" y="2879" type="curve"/>
      <point x="3370" y="2958"/>
      <point x="3198" y="3052"/>
      <point x="3012" y="3052" type="curve" smooth="yes"/>
      <point x="2684" y="3052"/>
      <point x="2533" y="2732"/>
      <point x="2533" y="2212" type="curve" smooth="yes"/>
      <point x="2533" y="0" type="line"/>
      <point x="1795" y="0" type="line"/>
      <point x="1795" y="2097" type="line" smooth="yes"/>
      <point x="1795" y="2715"/>
      <point x="2316" y="3113"/>
      <point x="2971" y="3113" type="curve" smooth="yes"/>
      <point x="3344" y="3113"/>
      <point x="3597" y="2859"/>
      <point x="3597" y="2585" type="curve" smooth="yes"/>
      <point x="3597" y="2335"/>
      <point x="3446" y="2167"/>
      <point x="3200" y="2167" type="curve" smooth="yes"/>
      <point x="2975" y="2167"/>
      <point x="2766" y="2306"/>
      <point x="2766" y="2552" type="curve" smooth="yes"/>
      <point x="2766" y="2798"/>
      <point x="2939" y="2957"/>
      <point x="3160" y="2957" type="curve" smooth="yes"/>
      <point x="3285" y="2957"/>
      <point x="3372" y="2921"/>
    </contour>
  </outline>
</glyph>
<glyph name="uniFB01" format="2">
  <advance width="700"/>
  <unicode hex="FB01"/>
  <outline>
    <contour>
      <point x="100" y="512" type="line" smooth="yes"/>
      <point x="100" y="673"/>
      <point x="227" y="760"/>
      <point x="427" y="760" type="curve" smooth="yes"/>
      <point x="538" y="760"/>
      <point x="610" y="698"/>
      <point x="610" y="631" type="curve" smooth="yes"/>
      <point x="610" y="570"/>
      <point x="573" y="529"/>
      <point x="513" y="529" type="curve" smooth="yes"/>
      <point x="458" y="529"/>
      <point x="407" y="563"/>
      <point x="407" y="623" type="curve" smooth="yes"/>
      <point x="407" y="683"/>
      <point x="449" y="720"/>
      <point x="503" y="720" type="curve" smooth="yes"/>
      <point x="534" y="720"/>
      <point x="555" y="707"/>
      <point x="561" y="691" type="curve"/>
      <point x="544" y="721"/>
      <point x="495" y="746"/>
      <point x="427" y="746" type="curve" smooth="yes"/>
      <point x="317" y="746"/>
      <point x="280" y="667"/>
      <point x="280" y="540" type="curve" smooth="yes"/>
      <point x="280" y="0" type="line"/>
      <point x="100" y="0" type="line"/>
    </contour>
    <contour>
      <point x="10" y="14" type="line"/>
      <point x="680" y="14" type="line"/>
      <point x="680" y="0" type="line"/>
      <point x="10" y="0" type="line"/>
    </contour>
    <contour>
      <point x="420" y="446" type="line"/>
      <point x="10" y="446" type="line"/>
      <point x="10" y="460" type="line"/>
      <point x="610" y="460" type="line"/>
      <point x="610" y="0" type="line"/>
      <point x="420" y="0" type="line"/>
    </contour>
  </outline>
</glyph>
<glyph name="uniFB02" format="2">
  <advance width="6240"/>
  <unicode hex="FB02"/>
  <outline>
    <contour>
      <point x="80" y="112" type="line"/>
      <point x="6120" y="112" type="line"/>
      <point x="6120" y="0" type="line"/>
      <point x="80" y="0" type="line"/>
    </contour>
    <contour>
      <point x="80" y="3680" type="line"/>
      <point x="3360" y="3680" type="line"/>
      <point x="3360" y="3568" type="line"/>
      <point x="80" y="3568" type="line"/>
    </contour>
    <contour>
      <point x="3880" y="5840" type="line"/>
      <point x="5400" y="6160" type="line"/>
      <point x="5400" y="0" type="line"/>
      <point x="3880" y="0" type="line"/>
    </contour>
    <contour>
      <point x="3984" y="5536" type="curve"/>
      <point x="3880" y="5720"/>
      <point x="3584" y="5968"/>
      <point x="3176" y="5968" type="curve" smooth="yes"/>
      <point x="2536" y="5968"/>
      <point x="2240" y="5336"/>
      <point x="2240" y="4320" type="curve" smooth="yes"/>
      <point x="2240" y="0" type="line"/>
      <point x="800" y="0" type="line"/>
      <point x="800" y="4096" type="line" smooth="yes"/>
      <point x="800" y="5304"/>
      <point x="1816" y="6080"/>
      <point x="3096" y="6080" type="curve" smooth="yes"/>
      <point x="3824" y="6080"/>
      <point x="4320" y="5584"/>
      <point x="4320" y="5048" type="curve" smooth="yes"/>
      <point x="4320" y="4560"/>
      <point x="4024" y="4232"/>
      <point x="3544" y="4232" type="curve" smooth="yes"/>
      <point x="3104" y="4232"/>
      <point x="2696" y="4504"/>
      <point x="2696" y="4984" type="curve" smooth="yes"/>
      <point x="2696" y="5464"/>
      <point x="3008" y="5776"/>
      <point x="3440" y="5776" type="curve" smooth="yes"/>
      <point x="3776" y="5776"/>
      <point x="3984" y="5536"/>
    </contour>
  </outline>
</glyph>
<glyph name="uniFB03" format="2">
  <advance width="8160"/>
  <unicode hex="FB03"/>
  <outline>
    <contour>
      <point x="3360" y="4096" type="line" smooth="yes"/>
      <point x="3360" y="5384"/>
      <point x="4376" y="6080"/>
      <point x="5976" y="6080" type="curve" smooth="yes"/>
      <point x="6864" y="6080"/>
      <point x="7440" y="5584"/>
      <point x="7440" y="5048" type="curve" smooth="yes"/>
      <point x="7440" y="4560"/>
      <point x="7144" y="4232"/>
      <point x="6664" y="4232" type="curve" smooth="yes"/>
      <point x="6224" y="4232"/>
      <point x="5816" y="4504"/>
      <point x="5816" y="4984" type="curve" smooth="yes"/>
      <point x="5816" y="5464"/>
      <point x="6144" y="5760"/>
      <point x="6576" y="5760" type="curve" smooth="yes"/>
      <point x="6864" y="5760"/>
      <point x="7016" y="5640"/>
      <point x="7048" y="5528" type="curve"/>
      <point x="6912" y="5768"/>
      <point x="6520" y="5960"/>
      <point x="5976" y="5960" type="curve" smooth="yes"/>
      <point x="5096" y="5960"/>
      <point x="4800" y="5336"/>
      <point x="4800" y="4320" type="curve" smooth="yes"/>
      <point x="4800" y="0" type="line"/>
      <point x="3360" y="0" type="line"/>
    </contour>
    <contour>
      <point x="80" y="112" type="line"/>
      <point x="8000" y="112" type="line"/>
      <point x="8000" y="0" type="line"/>
      <point x="80" y="0" type="line"/>
    </contour>
    <contour>
      <point x="800" y="3696" type="line" smooth="yes"/>
      <point x="800" y="4896"/>
      <point x="1816" y="5680"/>
      <point x="3176" y="5680" type="curve" smooth="yes"/>
      <point x="3904" y="5680"/>
      <point x="4480" y="5184"/>
      <point x="4480" y="4648" type="curve" smooth="yes"/>
      <point x="4480" y="4160"/>
      <point x="4184" y="3832"/>
      <point x="3704" y="3832" type="curve" smooth="yes"/>
      <point x="3264" y="3832"/>
      <point x="2856" y="4104"/>
      <point x="2856" y="4584" type="curve" smooth="yes"/>
      <point x="2856" y="5064"/>
      <point x="3168" y="5376"/>
      <point x="3600" y="5376" type="curve" smooth="yes"/>
      <point x="3880" y="5376"/>
      <point x="4032" y="5224"/>
      <point x="4032" y="5224" type="curve"/>
      <point x="3896" y="5392"/>
      <point x="3616" y="5552"/>
      <point x="3256" y="5552" type="curve" smooth="yes"/>
      <point x="2616" y="5552"/>
      <point x="2240" y="4936"/>
      <point x="2240" y="3920" type="curve" smooth="yes"/>
      <point x="2240" y="0" type="line"/>
      <point x="800" y="0" type="line"/>
    </contour>
    <contour>
      <point x="5920" y="3568" type="line"/>
      <point x="80" y="3568" type="line"/>
      <point x="80" y="3680" type="line"/>
      <point x="7440" y="3680" type="line"/>
      <point x="7440" y="0" type="line"/>
      <point x="5920" y="0" type="line"/>
    </contour>
  </outline>
</glyph>
<glyph name="uniFB04" format="2">
  <advance width="4572"/>
  <unicode hex="FB04"/>
  <outline>
    <contour>
      <point x="34" y="56" type="line"/>
      <point x="4519" y="56" type="line"/>
      <point x="4519" y="0" type="line"/>
      <point x="34" y="0" type="line"/>
    </contour>
    <contour>
      <point x="34" y="1884" type="line"/>
      <point x="3106" y="1884" type="line"/>
      <point x="3106" y="1828" type="line"/>
      <point x="34" y="1828" type="line"/>
    </contour>
    <contour>
      <point x="3372" y="2990" type="line"/>
      <point x="4150" y="3154" type="line"/>
      <point x="4150" y="0" type="line"/>
      <point x="3372" y="0" type="line"/>
    </contour>
    <contour>
      <point x="2059" y="2677" type="curve"/>
      <point x="1992" y="2761"/>
      <point x="1840" y="2842"/>
      <point x="1660" y="2842" type="curve" smooth="yes"/>
      <point x="1332" y="2842"/>
      <point x="1140" y="2527"/>
      <point x="1140" y="2007" type="curve" smooth="yes"/>
      <point x="1140" y="0" type="line"/>
      <point x="403" y="0" type="line"/>
      <point x="403" y="1892" type="line" smooth="yes"/>
      <point x="403" y="2506"/>
      <point x="923" y="2908"/>
      <point x="1619" y="2908" type="curve" smooth="yes"/>
      <point x="1992" y="2908"/>
      <point x="2287" y="2654"/>
      <point x="2287" y="2380" type="curve" smooth="yes"/>
      <point x="2287" y="2130"/>
      <point x="2135" y="1962"/>
      <point x="1889" y="1962" type="curve" smooth="yes"/>
      <point x="1664" y="1962"/>
      <point x="1455" y="2101"/>
      <point x="1455" y="2347" type="curve" smooth="yes"/>
      <point x="1455" y="2593"/>
      <point x="1615" y="2753"/>
      <point x="1836" y="2753" type="curve" smooth="yes"/>
      <point x="1996" y="2753"/>
      <point x="2028" y="2698"/>
    </contour>
    <contour>
      <point x="3419" y="2849" type="curve"/>
      <point x="3356" y="2961"/>
      <point x="3185" y="3056"/>
      <point x="3012" y="3056" type="curve" smooth="yes"/>
      <point x="2684" y="3056"/>
      <point x="2533" y="2732"/>
      <point x="2533" y="2212" type="curve" smooth="yes"/>
      <point x="2533" y="0" type="line"/>
      <point x="1795" y="0" type="line"/>
      <point x="1795" y="2097" type="line" smooth="yes"/>
      <point x="1795" y="2715"/>
      <point x="2316" y="3113"/>
      <point x="2971" y="3113" type="curve" smooth="yes"/>
      <point x="3344" y="3113"/>
      <point x="3597" y="2859"/>
      <point x="3597" y="2585" type="curve" smooth="yes"/>
      <point x="3597" y="2335"/>
      <point x="3446" y="2167"/>
      <point x="3200" y="2167" type="curve" smooth="yes"/>
      <point x="2975" y="2167"/>
      <point x="2766" y="2306"/>
      <point x="2766" y="2552" type="curve" smooth="yes"/>
      <point x="2766" y="2798"/>
      <point x="2926" y="2957"/>
      <point x="3147" y="2957" type="curve" smooth="yes"/>
      <point x="3291" y="2957"/>
      <point x="3372" y="2892"/>
    </contour>
  </outline>
</glyph>
<glyph name="J.alt" format="2">
  <advance width="2972"/>
  <outline>
    <contour>
      <point x="1090" y="3072" type="line"/>
      <point x="2912" y="3072" type="line"/>
      <point x="2912" y="3016" type="line"/>
      <point x="1090" y="3016" type="line"/>
    </contour>
    <contour>
      <point x="1622" y="3072" type="line"/>
      <point x="2503" y="3072" type="line"/>
      <point x="2503" y="696" type="line"/>
      <point x="2257" y="204"/>
      <point x="1892" y="-123"/>
      <point x="1110" y="-123" type="curve" smooth="yes"/>
      <point x="508" y="-123"/>
      <point x="61" y="307"/>
      <point x="61" y="758" type="curve" smooth="yes"/>
      <point x="61" y="1135"/>
      <point x="336" y="1352"/>
      <point x="623" y="1352" type="curve" smooth="yes"/>
      <point x="889" y="1352"/>
      <point x="1098" y="1155"/>
      <point x="1098" y="864" type="curve" smooth="yes"/>
      <point x="1098" y="598"/>
      <point x="893" y="377"/>
      <point x="594" y="377" type="curve" smooth="yes"/>
      <point x="388" y="377"/>
      <point x="240" y="472"/>
      <point x="149" y="575" type="curve"/>
      <point x="247" y="236"/>
      <point x="626" y="-56"/>
      <point x="1028" y="-56" type="curve" smooth="yes"/>
      <point x="1401" y="-56"/>
      <point x="1622" y="205"/>
      <point x="1622" y="778" type="curve" smooth="yes"/>
    </contour>
  </outline>
</glyph>
<glyph name="R.alt" format="2">
  <advance width="3194"/>
  <outline>
    <contour>
      <point x="1577" y="1567" type="curve" smooth="yes"/>
      <point x="799" y="1567" type="line"/>
      <point x="799" y="1606" type="line"/>
      <point x="1372" y="1606" type="line" smooth="yes"/>
      <point x="1765" y="1606"/>
      <point x="1946" y="1786"/>
      <point x="1946" y="2314" type="curve" smooth="yes"/>
      <point x="1946" y="2842"/>
      <point x="1765" y="3016"/>
      <point x="1372" y="3016" type="curve" smooth="yes"/>
      <point x="61" y="3016" type="line"/>
      <point x="61" y="3072" type="line"/>
      <point x="1577" y="3072" type="line" smooth="yes"/>
      <point x="2318" y="3072"/>
      <point x="2847" y="2846"/>
      <point x="2847" y="2314" type="curve" smooth="yes"/>
      <point x="2847" y="1782"/>
      <point x="2359" y="1567"/>
    </contour>
    <contour>
      <point x="61" y="56" type="line"/>
      <point x="1679" y="56" type="line"/>
      <point x="1679" y="0" type="line"/>
      <point x="61" y="0" type="line"/>
    </contour>
    <contour>
      <point x="430" y="3072" type="line"/>
      <point x="1311" y="3072" type="line"/>
      <point x="1311" y="0" type="line"/>
      <point x="430" y="0" type="line"/>
    </contour>
    <contour>
      <point x="3154" y="0" type="line"/>
      <point x="3088" y="0"/>
      <point x="2687" y="0"/>
      <point x="2540" y="0" type="curve" smooth="yes"/>
      <point x="1340" y="0"/>
      <point x="2401" y="1548"/>
      <point x="1352" y="1548" type="curve" smooth="yes"/>
      <point x="799" y="1548" type="line"/>
      <point x="799" y="1579" type="line"/>
      <point x="1925" y="1579" type="line" smooth="yes"/>
      <point x="3289" y="1579"/>
      <point x="2425" y="56"/>
      <point x="3011" y="56" type="curve" smooth="yes"/>
      <point x="3097" y="56"/>
      <point x="3097" y="56"/>
      <point x="3154" y="56" type="curve"/>
    </contour>
  </outline>
</glyph>
<glyph name="fj.lig" format="2">
  <advance width="2772"/>
  <outline>
    <contour>
      <point x="41" y="56" type="line"/>
      <point x="1516" y="56" type="line"/>
      <point x="1516" y="0" type="line"/>
      <point x="41" y="0" type="line"/>
    </contour>
    <contour>
      <point x="2499" y="-49" type="line" smooth="yes"/>
      <point x="2499" y="-586"/>
      <point x="1978" y="-1065"/>
      <point x="1364" y="-1065" type="curve" smooth="yes"/>
      <point x="950" y="-1065"/>
      <point x="614" y="-872"/>
      <point x="614" y="-557" type="curve" smooth="yes"/>
      <point x="614" y="-307"/>
      <point x="807" y="-119"/>
      <point x="1053" y="-119" type="curve" smooth="yes"/>
      <point x="1278" y="-119"/>
      <point x="1487" y="-258"/>
      <point x="1487" y="-504" type="curve" smooth="yes"/>
      <point x="1487" y="-750"/>
      <point x="1313" y="-897"/>
      <point x="1038" y="-897" type="curve" smooth="yes"/>
      <point x="951" y="-897"/>
      <point x="893" y="-882"/>
      <point x="820" y="-838" type="curve"/>
      <point x="879" y="-910"/>
      <point x="1066" y="-995"/>
      <point x="1303" y="-995" type="curve" smooth="yes"/>
      <point x="1795" y="-995"/>
      <point x="1720" y="-438"/>
      <point x="1720" y="82" type="curve" smooth="yes"/>
      <point x="1720" y="1828" type="line"/>
      <point x="41" y="1828" type="line"/>
      <point x="41" y="1884" type="line"/>
      <point x="2499" y="1884" type="line"/>
    </contour>
    <contour>
      <point x="2269" y="2904" type="curve"/>
      <point x="2176" y="2978"/>
      <point x="2025" y="3052"/>
      <point x="1749" y="3052" type="curve" smooth="yes"/>
      <point x="1298" y="3052"/>
      <point x="1147" y="2732"/>
      <point x="1147" y="2212" type="curve" smooth="yes"/>
      <point x="1147" y="0" type="line"/>
      <point x="410" y="0" type="line"/>
      <point x="410" y="2097" type="line" smooth="yes"/>
      <point x="410" y="2756"/>
      <point x="930" y="3113"/>
      <point x="1749" y="3113" type="curve" smooth="yes"/>
      <point x="2204" y="3113"/>
      <point x="2499" y="2859"/>
      <point x="2499" y="2585" type="curve" smooth="yes"/>
      <point x="2499" y="2335"/>
      <point x="2347" y="2167"/>
      <point x="2101" y="2167" type="curve" smooth="yes"/>
      <point x="1876" y="2167"/>
      <point x="1667" y="2306"/>
      <point x="1667" y="2552" type="curve" smooth="yes"/>
      <point x="1667" y="2798"/>
      <point x="1838" y="2949"/>
      <point x="2059" y="2949" type="curve" smooth="yes"/>
      <point x="2174" y="2949"/>
      <point x="2223" y="2932"/>
    </contour>
  </outline>
</glyph>
<glyph name="four.alt" format="2">
  <advance width="715"/>
  <outline>
    <contour>
      <point x="650" y="14" type="line"/>
      <point x="650" y="0" type="line"/>
      <point x="265" y="0" type="line"/>
      <point x="265" y="14" type="line"/>
    </contour>
    <contour>
      <point x="575" y="498" type="curve"/>
      <point x="575" y="-1" type="line"/>
      <point x="360" y="-1" type="line"/>
      <point x="360" y="428" type="line"/>
      <point x="420" y="428"/>
      <point x="535" y="468"/>
    </contour>
    <contour>
      <point x="40" y="202" type="curve"/>
      <point x="665" y="202" type="line"/>
      <point x="665" y="188" type="line"/>
      <point x="15" y="188" type="line"/>
      <point x="155" y="388"/>
      <point x="300" y="600"/>
      <point x="320" y="750" type="curve"/>
      <point x="558" y="750" type="line"/>
      <point x="539" y="555"/>
      <point x="181" y="396"/>
    </contour>
  </outline>
</glyph>
